<?xml version="1.0" encoding="UTF-8" standalone="no"?>
<!-- Generator: Adobe Illustrator 19.0.0, SVG Export Plug-In . SVG Version: 6.00 Build 0)  -->

<svg
   xmlns:dc="http://purl.org/dc/elements/1.1/"
   xmlns:cc="http://creativecommons.org/ns#"
   xmlns:rdf="http://www.w3.org/1999/02/22-rdf-syntax-ns#"
   xmlns:svg="http://www.w3.org/2000/svg"
   xmlns="http://www.w3.org/2000/svg"
   xmlns:sodipodi="http://sodipodi.sourceforge.net/DTD/sodipodi-0.dtd"
   xmlns:inkscape="http://www.inkscape.org/namespaces/inkscape"
   version="1.1"
   id="Layer_1"
   x="0px"
   y="0px"
   viewBox="0 0 96 96"
   style="enable-background:new 0 0 96 96;"
   xml:space="preserve"
   sodipodi:docname="add-file.svg"
   inkscape:version="0.92.3 (2405546, 2018-03-11)"><metadata
   id="metadata11"><rdf:RDF><cc:Work
       rdf:about=""><dc:format>image/svg+xml</dc:format><dc:type
         rdf:resource="http://purl.org/dc/dcmitype/StillImage" /><dc:title></dc:title></cc:Work></rdf:RDF></metadata><defs
   id="defs9" /><sodipodi:namedview
   pagecolor="#ffffff"
   bordercolor="#666666"
   borderopacity="1"
   objecttolerance="10"
   gridtolerance="10"
   guidetolerance="10"
   inkscape:pageopacity="0"
   inkscape:pageshadow="2"
   inkscape:window-width="640"
   inkscape:window-height="480"
   id="namedview7"
   showgrid="false"
   inkscape:zoom="2.4583333"
   inkscape:cx="48"
   inkscape:cy="48"
   inkscape:window-x="0"
   inkscape:window-y="0"
   inkscape:window-maximized="0"
   inkscape:current-layer="Layer_1" />
<style
   type="text/css"
   id="style2">
	.st0{fill:#333333;}
</style>
<g
   id="XMLID_2_"
   style="fill:#e6e6e6"
   transform="matrix(1.6730355,0,0,1.6730355,-31.695531,-32.10231)">
	<path
   id="XMLID_6_"
   class="st0"
   d="m 66.3,50.3 v -4.6 c 0,-0.6 -0.2,-1.2 -0.7,-1.6 -0.5,-0.5 -1,-0.7 -1.6,-0.7 H 52.6 V 32 c 0,-0.6 -0.2,-1.2 -0.7,-1.6 -0.5,-0.5 -1,-0.7 -1.6,-0.7 h -4.6 c -0.6,0 -1.2,0.2 -1.6,0.7 -0.5,0.5 -0.7,1 -0.7,1.6 V 43.5 H 32 c -0.6,0 -1.2,0.2 -1.6,0.7 -0.5,0.5 -0.7,1 -0.7,1.6 v 4.6 c 0,0.6 0.2,1.2 0.7,1.6 0.5,0.5 1,0.7 1.6,0.7 H 43.5 V 64 c 0,0.6 0.2,1.2 0.7,1.6 0.5,0.5 1,0.7 1.6,0.7 h 4.6 c 0.6,0 1.2,-0.2 1.6,-0.7 0.5,-0.5 0.7,-1 0.7,-1.6 V 52.6 H 64 c 0.6,0 1.2,-0.2 1.6,-0.7 0.5,-0.5 0.7,-1 0.7,-1.6 z m 9.2,-19.5 v 34.4 c 0,2.8 -1,5.3 -3,7.3 -2,2 -4.4,3 -7.3,3 H 30.8 c -2.8,0 -5.3,-1 -7.3,-3 -2,-2 -3,-4.4 -3,-7.3 V 30.8 c 0,-2.8 1,-5.3 3,-7.3 2,-2 4.4,-3 7.3,-3 h 34.4 c 2.8,0 5.3,1 7.3,3 2,2 3,4.5 3,7.3 z"
   style="fill:#e6e6e6"
   inkscape:connector-curvature="0" />
</g>
</svg>