<?xml version="1.0" encoding="UTF-8" standalone="no"?>
<!-- Svg Vector Icons : http://www.onlinewebfonts.com/icon -->

<svg
   xmlns:dc="http://purl.org/dc/elements/1.1/"
   xmlns:cc="http://creativecommons.org/ns#"
   xmlns:rdf="http://www.w3.org/1999/02/22-rdf-syntax-ns#"
   xmlns:svg="http://www.w3.org/2000/svg"
   xmlns="http://www.w3.org/2000/svg"
   xmlns:sodipodi="http://sodipodi.sourceforge.net/DTD/sodipodi-0.dtd"
   xmlns:inkscape="http://www.inkscape.org/namespaces/inkscape"
   version="1.1"
   x="0px"
   y="0px"
   viewBox="0 0 1000 1000"
   enable-background="new 0 0 1000 1000"
   xml:space="preserve"
   id="svg2"
   inkscape:version="0.91 r13725"
   sodipodi:docname="filer.svg"><defs
     id="defs16" /><sodipodi:namedview
     pagecolor="#ffffff"
     bordercolor="#666666"
     borderopacity="1"
     objecttolerance="10"
     gridtolerance="10"
     guidetolerance="10"
     inkscape:pageopacity="0"
     inkscape:pageshadow="2"
     inkscape:window-width="721"
     inkscape:window-height="480"
     id="namedview14"
     showgrid="false"
     inkscape:zoom="0.236"
     inkscape:cx="500"
     inkscape:cy="500"
     inkscape:window-x="0"
     inkscape:window-y="0"
     inkscape:window-maximized="0"
     inkscape:current-layer="svg2" /><metadata
     id="metadata4"> Svg Vector Icons : http://www.onlinewebfonts.com/icon <rdf:RDF><cc:Work
     rdf:about=""><dc:format>image/svg+xml</dc:format><dc:type
       rdf:resource="http://purl.org/dc/dcmitype/StillImage" /></cc:Work></rdf:RDF></metadata><g
     id="g6"
     style="fill:#ffffff;fill-opacity:1"><g
       transform="translate(0.000000,192.000000) scale(0.100000,-0.100000)"
       id="g8"
       style="fill:#ffffff;fill-opacity:1"><path
         d="M916.7-3080v-4900H5000h4083.3v2858.3v2858.3H7041.7H5000v2041.7V1820H2958.3H916.7V-3080z M5408.3-3513.9l1199.5-1199.5h-806.5H5000v-1225v-1225h-816.7h-816.7v1225v1225h-801.4h-806.5l1199.5,1199.5c658.4,658.4,1209.7,1199.5,1225,1199.5C4198.6-2314.4,4749.9-2855.4,5408.3-3513.9z"
         id="path10"
         style="fill:#ffffff;fill-opacity:1" /><path
         d="M5816.7-68.5v-1378.1H7205h1393.4L7220.3-68.5C6464.9,692,5837.1,1309.6,5832,1309.6C5821.8,1309.6,5816.7,692,5816.7-68.5z"
         id="path12"
         style="fill:#ffffff;fill-opacity:1" /></g></g></svg>