<?xml version="1.0" encoding="UTF-8" standalone="no"?>
<!-- Created with Inkscape (http://www.inkscape.org/) -->

<svg
   xmlns:dc="http://purl.org/dc/elements/1.1/"
   xmlns:cc="http://creativecommons.org/ns#"
   xmlns:rdf="http://www.w3.org/1999/02/22-rdf-syntax-ns#"
   xmlns:svg="http://www.w3.org/2000/svg"
   xmlns="http://www.w3.org/2000/svg"
   xmlns:sodipodi="http://sodipodi.sourceforge.net/DTD/sodipodi-0.dtd"
   xmlns:inkscape="http://www.inkscape.org/namespaces/inkscape"
   width="512"
   height="512"
   viewBox="0 0 135.46666 135.46667"
   version="1.1"
   id="svg57"
   inkscape:version="0.92.3 (2405546, 2018-03-11)"
   sodipodi:docname="kingping.svg">
  <defs
     id="defs51" />
  <sodipodi:namedview
     id="base"
     pagecolor="#ffffff"
     bordercolor="#666666"
     borderopacity="1.0"
     inkscape:pageopacity="0.0"
     inkscape:pageshadow="2"
     inkscape:zoom="1.08"
     inkscape:cx="221.75926"
     inkscape:cy="337.77778"
     inkscape:document-units="mm"
     inkscape:current-layer="layer1"
     showgrid="false"
     units="px"
     inkscape:window-width="1920"
     inkscape:window-height="1059"
     inkscape:window-x="1680"
     inkscape:window-y="0"
     inkscape:window-maximized="1" />
  <metadata
     id="metadata54">
    <rdf:RDF>
      <cc:Work
         rdf:about="">
        <dc:format>image/svg+xml</dc:format>
        <dc:type
           rdf:resource="http://purl.org/dc/dcmitype/StillImage" />
        <dc:title></dc:title>
      </cc:Work>
    </rdf:RDF>
  </metadata>
  <g
     inkscape:label="Layer 1"
     inkscape:groupmode="layer"
     id="layer1"
     transform="translate(0,-161.53332)">
    <path
       style="fill:#ffffff;stroke-width:0.27283192"
       d="m 60.435805,276.62699 c -3.586998,-0.16915 -10.209095,-0.72025 -13.34317,-1.11045 -7.084098,-0.88198 -16.074462,-2.84704 -17.995454,-3.93334 -1.091389,-0.61718 -2.68831,-2.46321 -3.225373,-3.72853 -1.089848,-2.56767 -0.362608,-4.53674 2.272972,-6.15425 l 1.418587,-0.87063 v -4.49799 -4.49802 l -1.114745,-0.71041 c -1.944387,-1.23915 -2.787322,-3.72438 -1.897733,-5.59511 0.447225,-0.94047 1.682314,-1.51294 6.475436,-3.0014 19.541934,-6.06854 51.510143,-5.99811 70.557915,0.15545 4.40916,1.42441 5.48032,1.94015 5.91106,2.84595 0.9097,1.91301 0.1869,4.17373 -1.75388,5.48569 l -1.25859,0.85082 v 4.48251 4.48251 l 1.39827,0.85815 c 1.9899,1.22125 2.78782,2.34432 2.78782,3.9238 0,1.85609 -0.92092,3.58317 -2.82137,5.29117 -2.02378,1.81881 -10.958876,3.96656 -20.987028,5.04467 -6.643292,0.71422 -18.967079,1.03107 -26.424717,0.67941 z m 26.424717,-3.0633 c 5.103279,-0.57101 9.774742,-1.38516 13.473988,-2.34832 2.79729,-0.72833 2.85594,-0.75952 2.09304,-1.11346 -1.00708,-0.46723 -4.585229,-1.39178 -7.544839,-1.94948 -10.543715,-1.98688 -33.280383,-2.47384 -46.612738,-0.9983 -6.628988,0.73366 -14.515952,2.36452 -13.710506,2.83506 0.626554,0.36604 5.96217,1.64504 9.393597,2.25175 3.845,0.67983 9.516961,1.36178 14.268209,1.71548 5.318602,0.39595 23.863295,0.14164 28.639249,-0.39273 z M 70.053131,255.47991 c 2.619657,-1.73692 2.511421,-5.87738 -0.194534,-7.44108 -1.21045,-0.6995 -2.525224,-0.65833 -3.77049,0.11802 -3.479277,2.16915 -2.076366,7.88842 1.934993,7.88842 0.7143,0 1.5127,-0.22234 2.030031,-0.56536 z M 54.438423,254.0777 c 0.566195,-0.61572 0.764765,-1.10157 0.764765,-1.87122 0,-1.28165 -1.165597,-2.70287 -2.216731,-2.70287 -1.661179,0 -3.013315,1.68394 -2.642437,3.29087 0.487636,2.11282 2.695279,2.80471 4.094403,1.28322 z m 30.61081,0 c 1.53289,-1.66696 0.69104,-4.16367 -1.512284,-4.48504 -0.974117,-0.14208 -1.189447,-0.0619 -1.89641,0.70697 -1.089327,1.1846 -1.101738,2.6156 -0.03273,3.77807 0.566201,0.61571 1.012978,0.83166 1.720731,0.83166 0.707743,0 1.154532,-0.21595 1.720723,-0.83166 z M 14.28929,220.84046 C 8.1539385,208.07604 3.1748668,197.58811 3.2246945,197.53392 c 0.049838,-0.0541 1.7080647,1.40639 3.6849695,3.24572 1.9769078,1.83932 4.321278,4.01531 5.209708,4.83555 1.811416,1.67235 5.593272,3.89711 8.548546,5.02885 1.079227,0.4133 2.114756,0.80996 2.301176,0.88147 0.246658,0.0946 0.155734,0.42159 -0.333938,1.2009 -1.617958,2.57494 -2.3753,7.8479 -1.604477,11.17107 0.650543,2.80463 1.931991,5.3274 3.692516,7.26945 2.869852,3.16573 5.689922,3.89086 8.697733,2.23647 1.320318,-0.72622 1.602321,-1.03831 2.288611,-2.53277 l 0.782742,-1.7045 -0.04966,-4.72619 c -0.05723,-5.44804 -0.302197,-6.47739 -2.243236,-9.4264 -1.408982,-2.14065 -5.20422,-6.09639 -7.220608,-7.52595 -0.0545,-0.0386 0.660682,-0.96265 1.589293,-2.05335 1.915387,-2.24973 3.148647,-4.56752 3.736741,-7.02283 0.489103,-2.04201 1.03615,-10.64819 0.839537,-13.20763 -0.166178,-2.16326 -0.271058,-2.34508 2.018458,3.49936 3.491393,8.91248 7.436012,13.38313 12.747476,14.4474 l 1.729972,0.34663 -0.867652,1.59365 c -1.204015,2.21145 -2.346504,5.45575 -2.836361,8.05432 -1.349397,7.15825 1.03248,14.19792 5.653506,16.70903 5.86715,3.18827 11.723992,-2.70754 11.723992,-11.80197 0,-2.59581 -0.541803,-4.74404 -1.979446,-7.8485 -0.883473,-1.90777 -3.294901,-5.93259 -4.46545,-7.4531 -0.340523,-0.44233 -0.619137,-0.89776 -0.619137,-1.01206 0,-0.1143 0.794704,-0.83709 1.766011,-1.60621 0.971302,-0.76914 2.770467,-2.49024 3.998141,-3.82467 2.704329,-2.93952 3.779771,-5.15248 4.843093,-9.96583 0.397543,-1.79954 0.759993,-3.43194 0.805449,-3.62754 0.151848,-0.65343 0.883953,-0.38909 0.883953,0.31916 0,1.45091 1.35236,6.41011 2.337534,8.57186 1.299653,2.85184 2.727994,4.62132 6.113983,7.57422 1.467292,1.27961 2.702236,2.41975 2.744323,2.53368 0.04212,0.11392 -0.550747,1.11388 -1.317424,2.22214 -1.937605,2.80089 -3.812715,6.30458 -4.735629,8.84867 -2.237786,6.16859 -0.252382,14.15209 4.232486,17.0191 1.056211,0.67521 1.502931,0.78041 3.313824,0.78041 2.535813,0 4.004352,-0.69602 5.749626,-2.72504 3.703231,-4.3053 4.576128,-11.52003 2.225822,-18.39681 -0.280178,-0.81976 -0.952096,-2.42014 -1.493151,-3.5564 -0.541063,-1.13626 -1.016865,-2.13881 -1.057337,-2.22787 -0.04044,-0.0891 0.664956,-0.31131 1.56763,-0.49387 5.680506,-1.14879 9.871637,-6.34141 13.70127,-16.97525 l 1.0215,-2.83641 0.16297,6.39282 c 0.15888,6.23248 0.40925,8.41673 1.20091,10.47714 0.61043,1.58876 1.96022,3.73749 3.48659,5.55028 l 1.40467,1.66826 -0.77251,0.60783 c -3.25616,2.56202 -6.45663,6.33751 -7.87129,9.28549 l -0.750904,1.56482 v 5.54798 c 0,4.75997 0.06546,5.67817 0.460644,6.46442 1.53778,3.05926 5.29465,4.18088 8.42512,2.51534 2.67311,-1.42221 5.60875,-5.80319 6.39851,-9.54878 0.66908,-3.17323 0.11733,-7.65503 -1.29037,-10.48138 -0.42304,-0.84937 -0.71627,-1.63736 -0.65163,-1.75111 0.0647,-0.11375 1.03316,-0.55748 2.15226,-0.98608 4.91278,-1.88154 6.81708,-3.22203 13.44497,-9.4643 2.19738,-2.06954 4.04046,-3.71362 4.09574,-3.6535 0.13503,0.14685 -22.00176,46.23749 -22.21129,46.24576 -0.0905,0.003 -0.82357,-0.42508 -1.62906,-0.95253 -3.83117,-2.50879 -12.02321,-4.49843 -23.061334,-5.60106 -4.840456,-0.48353 -24.51727,-0.67231 -30.872439,-0.2962 -13.907134,0.82305 -24.667237,3.18366 -28.58717,6.27159 l -1.040727,0.81983 z"
       id="path40"
       inkscape:connector-curvature="0" />
  </g>
</svg>
