<?xml version="1.0" encoding="UTF-8" standalone="no"?>
<svg
   xmlns:dc="http://purl.org/dc/elements/1.1/"
   xmlns:cc="http://creativecommons.org/ns#"
   xmlns:rdf="http://www.w3.org/1999/02/22-rdf-syntax-ns#"
   xmlns:svg="http://www.w3.org/2000/svg"
   xmlns="http://www.w3.org/2000/svg"
   xmlns:sodipodi="http://sodipodi.sourceforge.net/DTD/sodipodi-0.dtd"
   xmlns:inkscape="http://www.inkscape.org/namespaces/inkscape"
   width="48"
   height="48"
   viewBox="0 0 48 48"
   version="1.1"
   id="svg6"
   sodipodi:docname="mic-unmuted.svg"
   inkscape:version="0.92.3 (2405546, 2018-03-11)">
  <metadata
     id="metadata12">
    <rdf:RDF>
      <cc:Work
         rdf:about="">
        <dc:format>image/svg+xml</dc:format>
        <dc:type
           rdf:resource="http://purl.org/dc/dcmitype/StillImage" />
        <dc:title></dc:title>
      </cc:Work>
    </rdf:RDF>
  </metadata>
  <defs
     id="defs10" />
  <sodipodi:namedview
     pagecolor="#ffffff"
     bordercolor="#666666"
     borderopacity="1"
     objecttolerance="10"
     gridtolerance="10"
     guidetolerance="10"
     inkscape:pageopacity="0"
     inkscape:pageshadow="2"
     inkscape:window-width="640"
     inkscape:window-height="480"
     id="namedview8"
     showgrid="false"
     inkscape:zoom="4.9166667"
     inkscape:cx="24"
     inkscape:cy="28.677966"
     inkscape:window-x="0"
     inkscape:window-y="0"
     inkscape:window-maximized="0"
     inkscape:current-layer="svg6" />
  <path
     d="m 24,30.301516 c 4.160383,0 7.516343,-3.381097 7.516343,-7.54148 L 31.541476,7.6770737 C 31.54148,3.5041213 28.172953,0.13559322 24,0.13559322 c -4.160383,0 -7.54148,3.36852808 -7.54148,7.54148048 V 22.760036 c 0,4.160383 3.381097,7.54148 7.54148,7.54148 z m 13.323283,-7.54148 c 0,7.54148 -6.372551,12.820517 -13.323283,12.820517 -6.938162,0 -13.323283,-5.279037 -13.323283,-12.820517 H 6.4032114 c 0,8.584719 6.8376086,15.67371 15.0829616,16.892916 v 8.245353 h 5.027654 v -8.245353 c 8.245352,-1.219206 15.082962,-8.308197 15.082962,-16.892916 z"
     id="path2"
     inkscape:connector-curvature="0"
     style="stroke-width:1.25691354;fill:#ffffff" />
  <path
     d="M0 0h48v48H0z"
     fill="none"
     id="path4" />
</svg>
