<?xml version="1.0" encoding="utf-8"?>
<!-- Svg Vector Icons : http://www.onlinewebfonts.com/icon -->
<!DOCTYPE svg PUBLIC "-//W3C//DTD SVG 1.1//EN" "http://www.w3.org/Graphics/SVG/1.1/DTD/svg11.dtd">
<svg version="1.1" xmlns="http://www.w3.org/2000/svg" xmlns:xlink="http://www.w3.org/1999/xlink" x="0px" y="0px" viewBox="0 0 1000 1000" enable-background="new 0 0 1000 1000" xml:space="preserve">
<metadata> Svg Vector Icons : http://www.onlinewebfonts.com/icon </metadata>
<g><path fill="#FFFFFF" d="M540.8,739c0,45.8,37.1,82.9,82.9,82.9c45.8,0,82.9-37.1,82.9-82.9c0-45.8-37.1-82.9-82.9-82.9C577.9,656.1,540.8,693.1,540.8,739z M153.1,454.6c0,35.2,28.6,63.8,63.8,63.8c35.2,0,63.8-28.6,63.8-63.8c0-35.2-28.6-63.8-63.8-63.8C181.7,390.8,153.1,419.3,153.1,454.6z M978.2,370.6c0,0-22.5-42.5-73-100.7c-13.6,14.7-36.7,39.7-65,70.1c15,17.9,22.4,28.6,22.4,28.6c6.2,18.6,28.2,54,11,85c-17.2,31-43.6,39.7-83.9,60.8c-80.2,42-61.9,124.7-20.4,239.1c13.2,36.3,33.4,98.7-14.5,116.7c-29.5,11.1-62.3,17.1-103.9,16.5c-43.1-0.5-95.5-8-152.8-23.8c-185.5-51.4-313.8-151.1-364.5-291.6c-50.7-140.6-39.9-320.7,63.8-404.7c103.6-84,288.5-95.4,437.4-1.8c19.7,12.4,38.2,24.9,55.2,37.4c33.2-29.6,59.5-53,72.2-64.3c-19.9-14.7-41.2-29.3-64.2-43.5c-190.8-118.1-427.6-106.1-560.4,0C4.8,200.6-20.7,423.2,44.2,600.8c65,177.5,225.2,320,467,368.2c61.6,12.3,119.2,19.3,170.9,20.6c61.2,1.5,114.2-5.1,156-20.6c61.5-22.7,63.6-92.2,46.7-138.1c-53.3-144.4-102.7-223.1,0-276.2c51.6-26.6,71.3-35.4,93.4-74.5C1000.3,441.1,986.1,394,978.2,370.6z M456.9,466.6c-19.5,21.4-97.6,103.7-120.3,196.6c89.5-11.4,142.8-52.8,206.8-103.9C579.2,510.9,767,323.8,767,323.8l182.3-188.2c0,0-1.4-21.2-12.5-32.8C927.1,92.7,907.3,92,907.3,92L694.8,271.5C694.8,271.5,507.5,426.9,456.9,466.6z M517.9,194.4c0-32.4-26.3-58.7-58.7-58.7c-32.4,0-58.7,26.2-58.7,58.7c0,32.4,26.3,58.7,58.7,58.7C491.6,253,517.9,226.7,517.9,194.4z M347,276c0-32.4-26.3-58.7-58.7-58.7c-32.4,0-58.7,26.2-58.7,58.7c0,32.4,26.3,58.7,58.7,58.7C320.7,334.7,347,308.4,347,276z"/></g>
</svg>