<?xml version="1.0" encoding="UTF-8" standalone="no"?>
<!-- Generator: Adobe Illustrator 16.0.0, SVG Export Plug-In . SVG Version: 6.00 Build 0)  -->

<svg
   xmlns:dc="http://purl.org/dc/elements/1.1/"
   xmlns:cc="http://creativecommons.org/ns#"
   xmlns:rdf="http://www.w3.org/1999/02/22-rdf-syntax-ns#"
   xmlns:svg="http://www.w3.org/2000/svg"
   xmlns="http://www.w3.org/2000/svg"
   xmlns:sodipodi="http://sodipodi.sourceforge.net/DTD/sodipodi-0.dtd"
   xmlns:inkscape="http://www.inkscape.org/namespaces/inkscape"
   version="1.1"
   id="Layer_1"
   x="0px"
   y="0px"
   width="512px"
   height="512px"
   viewBox="0 0 512 512"
   enable-background="new 0 0 512 512"
   xml:space="preserve"
   sodipodi:docname="voice-connected.svg"
   inkscape:version="0.92.3 (2405546, 2018-03-11)"><metadata
   id="metadata9"><rdf:RDF><cc:Work
       rdf:about=""><dc:format>image/svg+xml</dc:format><dc:type
         rdf:resource="http://purl.org/dc/dcmitype/StillImage" /><dc:title></dc:title></cc:Work></rdf:RDF></metadata><defs
   id="defs7" /><sodipodi:namedview
   pagecolor="#ffffff"
   bordercolor="#666666"
   borderopacity="1"
   objecttolerance="10"
   gridtolerance="10"
   guidetolerance="10"
   inkscape:pageopacity="0"
   inkscape:pageshadow="2"
   inkscape:window-width="1109"
   inkscape:window-height="882"
   id="namedview5"
   showgrid="false"
   inkscape:zoom="0.69"
   inkscape:cx="256"
   inkscape:cy="256"
   inkscape:window-x="0"
   inkscape:window-y="0"
   inkscape:window-maximized="0"
   inkscape:current-layer="Layer_1" />
<path
   d="m 449.03564,380.68559 c 0.656,3.687 1.125,7.406 1.125,11.281 0,35.344 -28.656,64 -64,64 0,17.688 -14.313,32 -32,32 -17.687,0 -32,-14.313 -32,-32 v -128 c 0,-17.688 14.313,-32 32,-32 17.687,0 32,14.313 32,32 17.625,0 33.594,7.125 45.156,18.688 12.032,-25.063 18.844,-53.094 18.844,-82.688 0,-105.875 -86.125,-191.999996 -192,-191.999996 -105.875,0 -191.999991,86.124996 -191.999991,191.999996 0,29.594 6.813,57.625 18.844,82.656 11.577994,-11.531 27.530991,-18.656 45.155991,-18.656 0,-17.688 14.313,-32 32,-32 17.687,0 32,14.313 32,32 v 128 c 0,17.688 -14.313,32 -32,32 -17.687,0 -32,-14.313 -32,-32 -35.343987,0 -63.999991,-28.656 -63.999991,-64 0,-3.875 0.484,-7.625 1.141,-11.281 -20.875,-34 -33.141,-73.875 -33.141,-116.719 0,-123.719 100.280991,-223.999996 223.999991,-223.999996 123.719,0 224,100.280996 224,223.999996 0,42.844 -12.25,82.719 -33.125,116.719 z"
   id="path2"
   inkscape:connector-curvature="0"
   style="fill:#ffffff" />
<circle
   style="fill:#ffffff"
   id="path11"
   cx="258.51636"
   cy="246.69218"
   r="61.830509" /></svg>