<?xml version="1.0" encoding="UTF-8" standalone="no"?>
<!-- Generated by IcoMoon.io -->

<svg
   xmlns:dc="http://purl.org/dc/elements/1.1/"
   xmlns:cc="http://creativecommons.org/ns#"
   xmlns:rdf="http://www.w3.org/1999/02/22-rdf-syntax-ns#"
   xmlns:svg="http://www.w3.org/2000/svg"
   xmlns="http://www.w3.org/2000/svg"
   xmlns:sodipodi="http://sodipodi.sourceforge.net/DTD/sodipodi-0.dtd"
   xmlns:inkscape="http://www.inkscape.org/namespaces/inkscape"
   version="1.1"
   width="64"
   height="64"
   viewBox="0 0 64 64"
   id="svg2"
   inkscape:version="0.48.5 r10040"
   sodipodi:docname="key.svg"
   inkscape:export-filename="/home/ubuntu/Videos/bookmarkable/cf/img/favicon.png"
   inkscape:export-xdpi="22.5"
   inkscape:export-ydpi="22.5">
  <metadata
     id="metadata10">
    <rdf:RDF>
      <cc:Work
         rdf:about="">
        <dc:format>image/svg+xml</dc:format>
        <dc:type
           rdf:resource="http://purl.org/dc/dcmitype/StillImage" />
        <dc:title></dc:title>
      </cc:Work>
    </rdf:RDF>
  </metadata>
  <defs
     id="defs8" />
  <sodipodi:namedview
     pagecolor="#ffffff"
     bordercolor="#666666"
     borderopacity="1"
     objecttolerance="10"
     gridtolerance="10"
     guidetolerance="10"
     inkscape:pageopacity="0"
     inkscape:pageshadow="2"
     inkscape:window-width="953"
     inkscape:window-height="674"
     id="namedview6"
     showgrid="false"
     inkscape:zoom="3.6875"
     inkscape:cx="32"
     inkscape:cy="32"
     inkscape:window-x="0"
     inkscape:window-y="24"
     inkscape:window-maximized="0"
     inkscape:current-layer="svg2" />
  <rect
     style="fill:#008CDD;fill-opacity:1;stroke:none"
     id="rect2987"
     width="65.355927"
     height="65.627113"
     x="-0.27118662"
     y="-0.54237276" />
  <path
     d="m 41.915254,5.1525424 c -9.501432,0 -17.20339,7.7019576 -17.20339,17.2033896 0,1.076932 0.09978,2.12978 0.289017,3.151661 L 4.0677966,46.440678 v 10.322034 c 0,1.900115 1.5405635,3.440678 3.4406778,3.440678 h 3.4406776 v -3.440678 h 6.881356 v -6.881356 h 6.881356 V 43 h 6.881356 l 4.46428,-4.46428 c 1.82872,0.662331 3.801089,1.023602 5.857754,1.023602 9.501432,0 17.20339,-7.701958 17.20339,-17.20339 0,-9.501432 -7.701958,-17.2033896 -17.20339,-17.2033896 z m 5.154135,17.2102716 c -2.850602,0 -5.161017,-2.310415 -5.161017,-5.161017 0,-2.850602 2.310415,-5.161017 5.161017,-5.161017 2.850602,0 5.161017,2.310415 5.161017,5.161017 0,2.850602 -2.310415,5.161017 -5.161017,5.161017 z"
     id="path4"
     inkscape:connector-curvature="0"
     style="fill:#ffffff" />
</svg>
