<svg xmlns="http://www.w3.org/2000/svg" xmlns:xlink="http://www.w3.org/1999/xlink" width="1024" height="1024" viewBox="0 0 270.9 270.9"><defs><linearGradient id="a"><stop offset="0" stop-color="#003f73"/><stop offset=".7" stop-color="#00a5d6"/><stop offset="1" stop-color="#003f73" stop-opacity="0"/></linearGradient><linearGradient xlink:href="#a" id="e" gradientUnits="userSpaceOnUse" x1="131.9" y1="60.9" x2="131.9" y2="410.8" spreadMethod="pad" gradientTransform="translate(0 -26)"/><path id="c" d="M0 0h512v512H0z"/><path id="d" d="M0 0h512v512H0z"/><radialGradient id="b" cx="803.5" cy="817.7" r="66.3" gradientUnits="userSpaceOnUse"><stop offset=".8" stop-color="#e0dcd5"/><stop offset="1" stop-color="#c0b8a8"/></radialGradient><clipPath id="g"><use height="100%" width="100%" overflow="visible" xlink:href="#d"/></clipPath><filter id="f" x="0" width="1" y="0" height="1" color-interpolation-filters="sRGB"><feGaussianBlur stdDeviation=".1"/></filter></defs><path fill="url(#e)" d="M0 0h271v271H0z"/><path d="M85 17h34v51h16v17H85V68h17V34H85zM169 17h17v17h-17zM220 17h34v51h17v17h-51V68h17V34h-17zM152 34h17v34h-17zM186 34h17v34h-17z" fill="#5198e2"/><g fill="#5198e2"><path d="M34 17h17v17H34zM17 34h17v34H17zM51 34h17v34H51zM34 68h17v17H34z"/></g><path d="M169 68h17v17h-17z" fill="#5198e2"/><path d="M17 102h34v33H34v-16H17zM102 102h17v17h-17zM152 102h34v33h-17v-16h-17zM237 102h17v17h-17zM220 119h17v16h-17zM254 119h17v16h-17zM34 135h17v17h17v17H17v-17h17zM85 119h17v33H85zM119 119h16v33h-16zM169 135h17v17h17v17h-51v-17h17zM220 135h17v17h-17zM254 135h17v17h-17zM102 152h17v17h-17zM237 152h17v17h-17z" fill="#4eb5ff"/><path d="M34 186h17v17H34z" fill="#4dcdff"/><path d="M85 186h34v34h-17v-17H85z" fill="#4cd0ff"/><path d="M169 186h17v17h-17zM220 186h34v34h-17v-17h-17z" fill="#4dcdff"/><path d="M17 203h17v34H17zM51 203h17v34H51zM102 220h17v17h16v17H85v-17h17zM152 203h17v34h-17zM186 203h17v34h-17z" fill="#4cd0ff"/><path d="M237 220h17v17h17v17h-51v-17h17z" fill="#4dcdff"/><path d="M34 237h17v17H34zM169 237h17v17h-17z" fill="#4cd0ff"/><path d="M169 119h17v33h-17z" fill="#4eb5ff"/><path d="M102 203h17v34h-17z" fill="#4cd0ff"/><path d="M237 203h17v34h-17z" fill="#4dcdff"/><path d="M34 119h17v33H34z" fill="#4eb5ff"/><path fill="#dec57c" d="M85 176h207v101H85z"/><path fill="#dec57c" d="M86 121h147v97H86zM114 43h13v59h-13z"/><path fill="#dec57c" d="M123 60h13v59h-13zM209 78h44v66h-44z"/><path fill="#dec57c" d="M241 68h13v22h-13zM94 110h55v22H94z"/><path fill="#dec57c" filter="url(#f)" d="M115 75h28v22h-28z"/><path fill="#dec57c" d="M216 65l12 6-11 19-11-6z"/><path fill="#dec57c" d="M219 72h1v1h-1zM65 154h92v53H65zM73 113h33v21H73z"/><g><g transform="translate(-7 -7) scale(.54539)" clip-path="url(#g)"><path d="M385 662l-1 1h-10l-12 1h-1l-16 1h-34l-12-1h-2 2a245 245 0 01-59-10l-21-7-2-2h2l6-1c7 0 13-1 19-5h1c2-1 2 0 2 2 3-3 7-3 10-5h2v2l-2 2 6-3h2l-1 2-1 3c3-2 5-4 6-8l2-3c1-4 2-7 6-9l2-3 2-1v2l-1 1c1-1 2-2 3 0l2-1 6-4 2-1-1 2-6 7-5 2 6-1h4v4l5-9 1-1c2-1 4-2 5-5l2 1v4l5-12c2 1 2 3 2 4l2-5c0-2-1-3 1-3l1-2 2-5 1-1 1 2-1 4c3-3 6-4 7-8l3-4h2v1l-1 4 12-8 3-1v3l4-2 6-3 2-1v3l4-5 2-1 1 2 1-1c2-3 2-3 4 0h2l2-3c2-1 2-1 3 1l2-1v-2c-2-1-1-2 0-2l4-5h2v1l-1 3 3-3h6c3-2 6-3 10-3l4-3 1-2 2-1v3l4-6 2-2 1 3 2-2 2-2v4c1-2 4 0 5-2-2 0-3-2-3-3l5-5 1 2c3-1 4-4 5-7v-1l2-2 1 3v-5c0-2 1-4 3-5l6-5c1-1 1-2 3-2 1 1-1 3-1 4l-1 1 5-6c1-3 3-4 5-5l2-2 4-3h2v1l-2 5c1-2 2-3 4-2l3-2-2-1 1-2c1-2 3-4 6-3l4-1h6l-2 1-2 1h18l2 1c2 2 1 5 2 7v2c-1 3 0 4 2 4s3 1 2 3l-2 2-1 2c1 0 2 0 1 1-2 2-3 4-1 5v2l-3 5h2v2l-3 6h3l-1 2-2 2-1 1v2c-4 2-6 6-8 10l-1 2c-1 0 0 1 0 0 2 0 2 1 1 2l-6 8-1 2 7-4c2 2 1 5 1 7l-1 1c1 3-1 3-2 4l-10 2 4-1 1 1-1 1-1 1c-6 0-9 3-13 7h1l2-1c1 1 0 2-1 3l-3 4-4 3 2 1v3h-1l-4 3-3 4h9l-2-1-1-2 2-1 3 1 5 3c-1-2-2-2-3-2l-2-2h3l4 2h2l-1-2 1-2c2 0 5 2 5 4l1 1 5 1 2 1c-3 3-7 4-10 6l-5 3-11 5a295 295 0 01-72 22l-6 1s-1 0 0 0z" fill="#e8d091"/><path d="M247 94c2 2 4 3 5 6h1c2 0 2 2 2 3l5 10 3 6 7 13 3 5c3 4 6 6 10 8s7 3 11 3l19 2 4-1h1l4 3-2-6 3 2 2 4 6 3 8-2 4-1-1 1c3 1 5-1 8-1l-2 2 5 1a375 375 0 0030 2h2l6-2 6-6 7-7h3l-1 2-5 8 2-3h2v1l-1 3 5-9 2-3c1-1 2 0 2 1 1-2 1-4 4-4l1-2 3-5h2l4-6 2-1v2l-1 4 5-12 2-1 1 2v-4c0-2 1-3 2-3l4-1h-3l-1-2 1-1 3-1c-2 0-3-1-1-3h-2v-2l6-11-1 6c4-2 7-4 10-8l1 3 2 1 5 1 8 2c1 0 3 0 3 2l-7-2 4 4v2h-1l-3-1c0 2 2 2 1 4h-2l5 4v2h-1l2 7v3l-2-1-1 4c0 1-1 2 1 2l1 2-2 5h1c0-1 0-3 1-2 2 0 1 2 1 3s0 2 2 2c1 0 3 1 3 3 1 1 0 3-1 4s-2 0-2-1c1 2 0 5 2 6v0-4h1c1 2 3 5 3 8 0 1 1 2-1 2v1l-2 7c2 1 2-1 3-2v-1l1-3 1 3 2-2v2l-1 4-2 7c1 0 2-1 2 1l-1 2c-2 1-2 4-2 6-1 3-1 6-4 8h2c1 2-1 3-1 4 2 0 2 2 1 3l-4 6 3-1c1-1 2 0 1 1l-2 3-9 4h8c1 2 0 2-1 3l-2 2v1l-2 2-8 6v2h1c2-1 1 1 3 2v-2l2-2 4-7v-2l4-2c2 0 3 1 2 3l1 5c2 1 1 4 1 5v-4c0-2 0-3 2-4l1-3v-4-2l2 2 6 16 3 5v2l1 2 8 14 2 4-2-2v1a195 195 0 012 10l1 4v1c1 6 3 13 6 19v1l-3-3c0 5 2 9 3 13-2 1-2-1-4-1l5 14-3-2 2 7 7 16 4 14 6 29 1 2-1 2-1-1-2-2-1 8 2-2h1l1 1-1 1-2 16c0-1-1-3 1-3s2 2 3 3l3 7v3h-1l-3 13 4-3c1-1 2-2 2 0 2 4 2 9 2 15-3-2-2-5-3-7l-6 20c-2-2 0-4-2-5l-3 6-1 3c-1 1 1 0 0 0l1 2-1 2c-2 3-4 7-4 10l-2 4c-2-1 0-3-1-5l-2 2-5 10c-1 1-1 2-2 1v-2l1-5-5 5c-1 1-2 2-3 0h-1l-2 2c-1 3-4 4-5 5l5-3 2 1-1 1-4 5-3 3 1-1 2 1-1 1-7 4s-2 1-2-1v1l-5 4-2 1v-2-4c-2 1-4 2-4 4-1 2-2 3-4 3l-4 3-2 1-1 1v-2l1-2-6 7-7 5h-2v-2-1c-2 1-5 1-7 3l-2 1c0-3 2-4 3-6h1c2 2 3-1 4-1l9-8c0-1 1-2 2-1v2l-1 1c5-4 9-8 12-14l2-3 1-1 1 2-2 5c4-6 7-13 8-19 1-3 2-4 4-5l7-4h-3-2l1-2 4-5h-3c-1-1 1-2 2-3 1-2 3-3 3-5-2 0-2 0-1-4l-5 3h-2v-2c0-2 1-3 3-5l6-7c0-1 0-2 1-1v1l-1 3 5-10-1 1h-1v-1-1l5-7c1-1 2-1 3 1l4-14v-1l1 1 2 3c-3-7-2-15-2-20l-1 10c-1 1-1 3-3 2-1-1-1 0-1 1l-3 6c-1 1-2 1-3-1l-3 5c-1 0-2 1-1 2l-1 1c-1 2-3 3-5 3l-8 2-2 2h8l-1 2-5 2-4 3 2-1 2 1-1 1-7 5 4-1 1 1v1l-1 1c-5 1-8 4-11 7l2-1 2-1h1v2l-5 4-2 1c-4 1-6 5-10 6l-1 3c1 1-1 2-2 2l-5 3 3 1 2 1-2 2-4 2 4-2h2v2l-7 5 2 1c3 0 3 1 1 3l2-1h2v2l-2 2c3-1 4-1 6-4 1-2 2-3 4-3l2-2h2v1l-3 5v3c-1 3-2 8-5 11-1 2-1 4-4 6 3 2 1 2 0 3l-4 4-2 2c-3 2-5 6-6 11 0 1-2 3-3 2-2 0 0-2 0-4l1-5c-1 3-3 6-6 8h-3v-2-1l-7 2c-1 0-2 1-2-1l1-1 4-5c1-3 3-6 6-8 4-3 6-7 8-11 2-3 2-5 0-8l-1-3-9 6-2 1v-2l5-7-4 2h-2v-2l6-6-8 3-2-1 1-1 6-4 4-6 5-6 6-6-5 2-8 7c-5 4-11 5-17 5l-1-1c-1-1 0-1 1-1l4-2c6-1 9-5 11-10l1-2c0-1 0 0 0 0 0 1-1 3-2 2v-3l2-9c1-1 1-4 3-2l1-1 4-10 2-2c2 0 1 1 1 2l1 4c3-6 8-9 9-16l-1 3-1 1-1-2a47 47 0 00-1-10l-1 2-1-2c0-2 0-5 2-8l3-6 1-1 1 2 1 8c1-4 3-7 3-11l1-1c1-1 1 0 1 1l1 2c2-7 0-14 0-21v-5l1-1 1 1 2 4 2-7 2-2 1 4 2-7 3-7c-1 0-2 0-2-2v-1l-6-3-2-1 2-1 3-2-1-1c-2 0-2-1-1-2s2-2 1-3l1-2 5-3h-2l-2-1-3-3v-2c1 0 0 0 0 0l-1-1-1-1 2-1h1l-2-4 1-2 7-2h-3l-2-1 1-2 2-1-5 1-2-1 1-1 1-2c-1-1-3-1-3-4 0-2 2-3 3-4l-1-1c-1-1 0-1 1-1l3-2-3 1-3-1c-1-1-1-3-3-2v-2l2-1h-4-2v-3l2-2-2-2 1-4-4 5c-1 3-4 6-7 6l-1-1 1-1 4-5c-2-1-3-2-1-6l-7 3-2-1 1-1-9 2 6 1-2 1h2l2 1-2 2h3l2 1-2 2h-6c-2-1-5-1-7-3-1 0-1-1 1-2h-10l-11-2c1-2 2-2 4-2 1-1 3-1 2-2 0-2-2-1-3-1l-4 1-8 4c-2 0-3 0-2-2-3 2-6 2-9 0h-3l-3 1h-2v-2l-4 2-1 3v5l-1 2c-1 1-1-1-1-1l-3 6c-2 1-2 1-3-1l-1 3-4 5h-2l-4 6-3 4c-3 0-4 2-6 4h-2v-2l1-2-2 1h-2l-1 1-1 1c-2 1-3 3-1 4 1 1 0 1-1 2s-4 2-6 1l-5 1-3 2c-1 0-2 1-2-1l-1-1c-1-4-2-2-3-1h-4c-2-2-5-1-8 0h-5l-4-1c-2 1-4-1-5-2l-1 3c-2 1-3 1-3-2l-1-3v-1 1l-1 1-1-2c0-3-1-6 1-9v-1l-2-6-1 2-1 2-1-1c-1-3-2-5-1-8v-2c-2 0-3-1-4-3 0 4-3 7-4 11 0 4-4 6-8 8h-1v-2l1-7-2 1-1-3 1-7v-2h-1l-1 2-1-3-2-7v-1h1l3 3 1-1 2 2v-5-2l1-1c1-1 1 0 1 1l1-7c0-2 1-2 2-1l4-10h-1l-2 1-1-3v-6l-5 7-1 2-1-2-2 6c0 1 0 2-2 2l-1-2-4 5-1 3c1 2 0 2-1 2-3-1-4-3-3-7 0 2-1 3-3 5h-1v-2-1l-8 4h2l1 1c1 1 0 1-1 1-2 2-5 2-8 3l2 1-2 1-6 2 2 1-1 1-7 6c-2 1-3 1-3-2-1-2-1-5 1-7s3-4 6-5l-3-1 2-2 2-1h-3c-1-1 0-3 1-3l2-1 9-5-5 1-1-1v-2l3-1 3-2-8 3h-1c1-2 1-6 5-6l1-2 2-7c0-1 0-3 2-3l1-2c0-2 1-5 3-6l1-2c0-2 4-5 5-5l1 1-1 2c2-2 4-4 4-6h-2v-2l4-5 2-4c1-2 1-2 3-1l1 1c0-2 0-4 2-5v-6l-1-2c0-2 0-2 2-2v-3c0-1 0-2 2-2l1-2 1-4c0-1-1-3 2-3v-1h3l2-10v-1c2-1 0-3 0-4-1-1-2-2-4-1-1 1-2 0-2-1l-1-3c0-3-2-5-4-5l-2 2c0 2-1 2-2 2h-1c-3-3-6-2-10-1h-1c-2-2-2-3 1-4h5l4-2v-3c-1-1-2-1-1-2 3 0 5 2 7 3l2 1 1-1 6 1 1-1h3l3-1h3l9-1-6-3-5-4-4-6c0-1 0 0 0 0 1-4-2-6-4-8l-1-4-1-2-4-3c-1-2-1-2 1-3l-6-8-3-3c-1-1-1-2 1-2l-3-5-1-3h1z" fill="#c99536"/><path d="M437 512l3-2 8-2c0 1-2 2-1 4 5-5 11-8 15-14v2l-1 3 1-1 4-3 1-1c1 1 2 0 2-1l2-2 1-2 4-3v8l9-8-2 3 9-6-3 1c0-2 2-3 3-4l6-6c-2 0-4 0-9 4l4-4 1-1 1-2 5-3-1 2c4-1 6-4 8-7l-1 8 7-11 1-3 1 1 1 1v4l2-9 5-8-3 1 6-12c3 1 1 4 1 6l6-21c2 2 2 5 3 7 1-4 0-11-2-14l-3 2-3 3v-4l3-10v-1c3 0 2-1 1-2 0-3-2-5-3-7l-2-4-2 5c-1-7 1-13 3-20l-4 4c0-4 2-8 1-11l4 4v-4l4 10 5 9v2l1 2v5c1 5 3 10 7 14l1 2-4-3 3 9-2 1 1 13 4 14c1 2 2 4 1 6l-2-3 2 19-1-4-1-1-1-1-1 1-1 6-1 2-1-3-1-6c0 2 1 3-1 4l-1 2-1 4-2-4v8l1 7c0 1 0 2-2 2l-2-2v-1c0-1 0 0 0 0l-3 12-4 7c1 0 1-2 3-2v4l-4 12c1-1 1 0 2 1 1 2 0 4-2 6l-2 1c-1 2-1 0-2 0v3h1l3-4v3l-1 3c-1 1-1 1 1 1 1 1 2 2 1 4-1 1-2 3 0 5l-1 3-2 4v1l-2 2v-3-2c-6 0-7 5-10 9 1-1 1-3 3-3 1 1 0 3-1 4l-2 6-1 1-1-2-1 1c-2 0-2 2-2 3l-2 5-2 1v-2c-1 0-1 2-3 1h-1c-1 3-3 4-5 6l3 1-2 2-6 2-8 4c3-4 7-7 9-12l-3 1 1-2 2-5 5-6 2-1v-1l-1-1 5-4v-1l-3 2c0-4 3-6 4-10-2 0-2 2-3 2 0-3 2-6 4-8-3-2-3-3 0-5v-1l1-1-3 1 5-7h-1l-4-2-1-2c1-1 2-3 0-4v-1l1-2-2-4h-11l-9 1-1-1 5-2-5 1h-5l-2 1-4 4 3 1-3 2h-2-1l-1 1-3 2 4-7-6 4c-1 1-1 2-3 2l-2 2-2 3c-1 3-3 5-6 7l3-6c-1-1-2 0-2 1l-5 5-3 1-1 1v3 2l-3 5 1-4-1 2c-1 3-3 6-6 7l-1 1v-3l-5 5 1 1v1l3-1-4 4v-1c-2 0-2 2-4 3l2-6-5 5v-3h-1l-6 8h-1c0-1 2-2 1-4l-2 2c-1 2-2 4-4 4l-7 2-3 1h-6l-2 3-1 1c-1-2 0-4 1-5-3 1-6 5-7 7h2l-4 4c-1 0-1 0 0 0v-2l-2 1-4 4-2-4-4 4v-2h-1l-2 2-4 4 1-4c-5 3-8 6-13 7v-4l-1 1-9 5-5 4 1-6-4 5c0 2-1 3-3 4l-4 3c-2-2 0-4 0-6l-2 3-1 4c0 2 0 2-2 2l-1 5-1 3h-1l-1-5-2 6-3 5-1 2v-6l-2 2c0 1-1 3-3 3l-2 2c-2 3-3 6-6 8l-1 1 1-2v-3h-3l-7 1 5-2 1-1c0-3 3-3 4-5l2-2-10 6 1-2-4 2 2-4-2 2-5 5-1 2-4 9c-2 3-4 5-8 7l3-6-4 2-4 2c0-2 2-3 3-5l-5 2-1 1-3 1-4 1h-1l2-2-6 3-6 2h-4-7l-1 1h-4-1v1l14 5 14 4 13 3 21 3 13 2h7l-3 1h-3l-3-1h-3-4l-2-1h-6l-2-1h-3-2l-1-1h-2-1l-4-1h-2l-2-1c-2 1-4 0-6-1a357 357 0 01-63-22 300 300 0 01-74-54l-8-7c-2-2-2-3-2-5 1-1 2-2 1-3l-2 2 2-4 3-4h-1c0-2 2-3 3-4l2-5 3-6-3 1c2-4 5-8 6-14l-2 2c3-6 4-11 3-17l-1 3-1-2-2 3 3-10 3-8-3 2 4-7h-2l1-1 3-5-1-2-1-1 1-2c1-2 0-3-1-4l-1-1-1-4v-1c1-1 2-2 1-4l1-1 1-1v-2l2-2c1-1 2-1 1-3l1-1 1-1h-2l3-2c0-1 2-1 0-2v-1l2-5 1-5 1-2 2 2c0 3 2 5 4 7 1 1 2 2 1 4v1l2 7v4c-1 3-1 3 1 5 2 1 2 3 2 4-1 1 0 3 1 4l4 8 1 1 1 1c0 3 3 4 3 7l2 2 4 5 2 2 3 1v2l-1 5 1 1v-1c0-1 1-2 2 0 2 2 5 2 6 5 3 0 4 2 5 4 0 1 1 2 2 1 2 0 4 1 4 3l2 4c2 1 4 2 5 5l1 2 2 1 2 1 1 1c1 2 3 3 3 6l2 3 5 5s0 1 0 0l2 1 1 3c1-2 2-1 3 1v3c0 1-1 2 1 2v10c2-2 2-2 3 1 0 1 0 4 3 4l1 1c0 3 0 6-2 8s-2 3-1 5l1 2 5 8 4 4c1 1 2 0 3-1l6-4c1 0 3-2 4 1h1c4-2 8-4 12-8h-2c-1-1 0-1 1-2l5-5c0-1 1-2 2 0l1-1 4-4v-1c-2-1 0-2 0-2l3-3c2 0 3-1 3-2v-4c-1-1-2-1-2-3 1-2 3-4 4-3 2 0 2-1 3-2 2-2 2 1 3 2l1-10c-1-4 0-7 1-9l2-2h1l1 2v1c2-1 3-3 3-6 1-1 1-2 2 0l1-8c1-1 1-2 3-2l2 2c3-2 5-4 6-7 1-2 2-3 3-1h2c2-2 4-3 7-3 2 0 3 0 2-3-1-2 0-3 2-3l3-3c1-2 2-3 5-2l1-1 3-3 4 1c4 0 6-1 6-5v-2h7l2 1c1 1 0 2-1 2l13-7h3v2l6-4 5-2 2 1c0 2 1 2 2 2 2 0 3 1 2 3l-2 5 4-2a92 92 0 0012-3c1 0 3 0 3 2l-2 2 5-2h7c2 1 3 3 0 5h-5c3 3 6 4 11 3h2c2 1 4 0 6-1l4-2-1 5 6-4 4-6-1 5-2 6 4-3-1-1z" fill="#e3c270"/><path d="M133 446l-1 1-1-5-7-10 2-2c1-1 0-3 2-3 1-1 2 1 3 1h2l4 4v1l2-1c2-2 3-2 5-1h1l8-3 4-5c1-2 2-4 4-4 2-1 1-2 2-3h-2v-1l2-3h-1c0-3-3-4-2-7 1-1 0-1-1-1-3-1-3-1-1-3l-2-4-2-1-1-1 1-1 1-2-1-1c-2 0-2-1-1-2l4-1 1 2c1 6 5 10 10 13l2 3c1 2 3 4 6 5l3 2 9 3h6c1 1 2 0 3-1l6-3 1 1v2c-1-3 0-5 3-5l8 1 2 11-1-9 1-1 7 3 5 1 5 1c1 0 3 1 3-1 2-3 5-4 7-3l8-2 8-2 6-1 2-1h1l7-2c4 0 7-1 11-3 5-1 6-5 4-9-1-2-2-3-4-2l-5 1h-2c-3 2-7 2-10 5h-2c-2-2-5-2-7-1h-6l-7 3-8 3-3-3c-1-2-2-2-4-2l-5-1-4-10v-1h3c2-2 1-4 1-6l1-1h4l3-1 1 2v-1c3 1 4-1 5-2l3 1c1 1 2 1 3-1l1-1h1c2-1 2-1 1-3v-2c-1-2-1-3 2-4l2 1 1-2 17 3 12 3c0 2-2 3-3 5 0 1-2 2 1 3 1 1 1 2-1 3-1 0-2 0-2 2l3 2 15 6h2l2 2-2 2 4 7 1 1 2 4v3c1 1 1 4-1 5l-6 4 1 2c-2 1-3 3-6 3h-2 2l2 1-1 1c-1 2-3 2-5 3l3 1-3 1-11 1c-3-1-5 0-8 1l1 1-1 1-9 2h5l2 1-2 1c-4 1-8 2-12 1-1 0 0 0 0 0l7 1h3l1 1-1 1c-3 2-6 3-10 3h-12l2 1 1 1-1 1-9 1h6l2 1-2 1 5 5 1 1c2 0 2 0 2 2 3-3 6-3 9 0 2 1 4 3 4 6 1 1 2 2 3 1 3-2 6-1 8 1s5 2 7 1l8-5h2c4 0 8-1 11 3v-3l1-7 2-2 1 2v2c1-5 3-8 7-11h-6l2-2 5-1 11-1-4-3c0-1-2-1-1-2l2-1h12l-1-1c-1-2-1-2 1-2 4 0 6-1 9-4l-3 1h-2l1-2 6-3-7-2-2-2 2-1 5-2 6-2h2v1l-4 4 8-2v-4l2-3c-2-2-2-5 0-7l1-1 3-2v3l5-7 2-1 1 2v1c2-2 4-2 5-5l2-1 8-4h3v3l9-5c1-4 4-4 7-6l2-2h2v5l5-4 1-1c-2-1 0-1 0-2l5-3c1-1 2-1 2 1l6-5 2-1v2h2v2c-1 3-3 4-6 5l-7 4-1 2h2l3-1c0-1 1-2 2-1v3c-2 3-3 7-6 9l-3 5-1 1-1-2c-1 1-2 2-3 1l-1-2-8 8 4-3 2 1c-1 3-1 7-3 9-1 1-2 2-3 1l-1-2-4 3c-2 1-2 1-3-2l-4 6v1c-1 1-2 2-3 1v-2-2l-6 7h1v2l-3 6 7-9 2-1v5l2-2h2v2c0 2 0 3-2 4l-8 6h1c1 0 3 0 4 2 1 1 0 3-1 4-1 2-3 3-5 3l-7 2h4c1 0 2 0 1 1-2 3-4 5-7 5l-1 1c-1 3-2 5-4 6l-2 1-1-3 1-3-4 4c-1 1-1 3-3 3l-1 1-5 8 4-2c2 0 4 0 5 2h1c3 0 5-1 7-3l1-2c-1-1 0-2 1-2l8-2c2 1 4 0 5-1l7-5h1l1 1c-1 2 0 4-2 6v1c1 3 1 5-1 8s-3 7-7 9l-1 1h-2v-2l5-8 1-3-4 1v-4l-1 2c-1 2-4 4-6 3l-1-1c-3 1-4 5-8 7l3-2h2v2l-3 3 6-2 2 1c1 1 0 2-1 2l-12 7-7 2-6 4 6-2h2l-1 2c-1 2-3 4-6 5l-10 2c0-2 1-2 2-3v-1l-6-2h-2-1v-2l4-4 14-10-8-1s-2 1-2-1l6-3c-1 0-3 2-3 0-1-1 1-2 2-3l-7 7c-2 3-6 4-9 6-2-1-3 0-5 1-5 3-7 4-13 2 0 2 0 2-3 2l-8-1v1l-4 2h-5l-4 1c-2 0-2 0-2-2-3 2-6 4-10 4-1 1-1 0-1-2l-4 1c-4-1-7-2-10 0l-5-1h-5c-4 2-8 3-12 2l-9-2v2l-5-1h-4l-4-1c-1-1-2-2 0-3-4 1-8 1-12-1-4-3-10-3-15-5a114 114 0 00-11-5l-1-2 2-1h1l-5-3c-1 0-4-1-4-3l-10-7-5-6-2-1c-2 1-3 0-4-1h-1l-3-4-3-2-2-2-1-3c0-2 0-3-2-3l-2-1-5-8-1-1v2l1 3c-1 2 0 3 1 4 1 0 3 2 0 2l-1 1z" fill="#e3c270"/><path d="M238 158c2-1 4-2 7-1l4 1 3 1c-1-3 0-4 2-4 3 0 5 2 6 5v4h3c3 1 4 3 4 6l-1-1c1 5-1 9-2 13l-1-2c-2 0-2 2-3 3l-1-1-1 9h-1c-1-1-1 0-1 1l-1 2 1 3-3-1 2 4c1 2 0 5-1 7-2 0-1 1-2 2l-1 3-3-3c0 6-4 9-7 13l4-2c0 3-3 8-6 9l1-4-3 3c-1 0-2 0-1 1l-1 2-2 2-2 3v3c0 1-1 2-2 1v1l-2 6-2 5c-2 0-3 1-3 3l-3 2v1l-3-1 2-4v-2l2-1c4-2 4-2 6-5h-1c0 1-1 2-2 1s0-2 1-3c5-5 4-10 3-16v-3l1-1c1-1 0 1 1 1l-2-7s-1-1 1-2v-1c-2-1-3-1-3-3h-2c-2 0-4 2-5 4-1 1-1 2-3 1l-2 2-1 3c-1 1-1 2-3 2l-3 3h-3-1l-8 4h-2l2-2c-3 2-5 4-6 8-1 3-3 6-6 8-2 1-4 0-6-2 0 0-2 0-1-1 0-1 1-2 2-1-1-1-2 0-3-2l2-1c-1-2-4-1-6-2h-1l-2-1 1-1-7 1c-1 1-3-1-4 1l-2 2-4 4c-2 0-4 2-4 3l-1 6c0 1 0 3-2 3l-2 2c0 1 0 2-2 2-1-1-1 0-1 1l-4 5h-2l-2-1c-2 1-3 0-2-2l3-5 1-1 3-6 1-5 1-6 1-2v-3c1-1 2-2 1-3v-1l2-2 2-4 1-2 4-7 1-3c0-1 0-2 2-2l2-1c6-7 12-11 19-15h3l5-2c2-1 3-3 6-2 1-1 4-1 5-3v-1l9-6h5c1-1 2-2 3 0l1-1c2 0 3-2 4-3s1-3 2-1c1 1 2-1 2-1 1-1 2-3 3 0l6-7c3-1 6-1 8-3h-3c-1-1 1-2 2-2l4-2z" fill="#e4b051"/><path d="M526 526l1-2v-4l-1-1-1 2c0-7 3-12 4-17l-3 3v-2l4-6 4-14v1l1 1v2h1l1-1v-4l-1-9 1-4 2 5v-3l1-3s0-2 1-1l1-1-1-3c2 2 2 4 2 5l1 5 1 3c1 1 2 2 0 2v2l2 3h-1c-1 1 0 3 1 4l3 9-1-2v2l1 10v1 12 2l1 5 1 3v8l1 1 2 10h-1l-1 1v20l-2 2a184 184 0 01-62 53l-4-1-4-2c-1 0-1 0 0 0v-1c-1-2-3-2-5-2l1 4c-3-1-5-4-9-3l1 1 3 1v2l-1-1c-2 0-2-1-3-2-2-2-3-2-5 0l2 2 1 1-1 1-10-1c2-1 3-3 3-5l2-1 3-2c2-1 2-1 1-2l-3-1 1-1c2-1 4-2 4-4l3-3 2-2-5 2 7-7c2-2 6-2 9-3h-6l1-1 2-1 8-1 3-2h-2c2-3 2-6 1-9l1-2c3 1 4-1 6-2h1l-1-1-3 1 2-4c1 0 3-1 3-3l2-2v2l3-3v4c3-3 3-7 5-10v1l2-1 1-1v2l4-10-5 5 5-8 3-2c2 0 3-1 3-2l2-1-2 7 3-4 1-3 1-2-2-1 1-2 1-1c-2-1-1-2 0-2l1-3h-2c-1 0-2-1-1-2l2-4v-2z" fill="#d59a30"/><path d="M157 388l-4 3h4l-1 1 1 1c-1 2-2 1-3 2l4 2v2l1 1c1 1-1 1-2 2l3 1c2 1 2 1 1 2v3h1l1 1-1 2 2-1c1 1 0 2-1 3l-1 3 2-1-2 5v-2c-2 2-4 3-4 6l-2 2-2 2c-1 1-2 2-3 1l-2 1-3 2h-3l1-1c-2 0-4 0-4 2h-1l-3 1 1-2-2-1v-1l-2-1c-2 0-4-1-5-3l-1 4-3 2-4-9-2-8-1-1c1-2 0-3-1-4l-3-7v-3c0-1-2-2-1-4-2-1-1-2-1-3l-1-6h-1l1-3 1-1c-1-1-1-2-3-2l2-2v-2l-2-6v-5-3-3h1l-2-1v-1l-5 2 3-2c2-1 2-1 2-3v-2l1-1v-2h-2l3-3-1-3v-2l1-2 1-1 9-1h8l12 1v3l-9 2h-4l-11 3 11-3 13-2c2 1 1 3 2 5v4l1 3s2 0 1 1l-2 1c-1-1-2 0-3 1l-5 2c3-1 5-3 8-3l1 1c0 2 1 2 3 2 0 3 0 3 2 4v2l-1 1a28 28 0 00-4 1h1a28 28 0 004-1c1 2 3 2 5 1l5 8 3 4 1 2-2 2-2 5zM129 260c0 2 0 2 2 2l2-1v2c4-2 5-5 7-8l1 2 2-4h1l1-2 2-6-2 1 2-2 4-4h2l2-4 1-1 4-2v1c3-1 6-2 10-1l-2 1c2 1 4 0 6 2v-2l4 4-4 1 5 1-4 1c2 1 4 2 4 4 2 0 2-2 4-1v1c-1 2-2 5-4 6l-2 4-1-2 1 5c1 2 1 2-2 3-2 1-2 1-4-1l-2-5 1 8c1 2 1 4-1 7v2l-1 6v1l-1-1-1-1 2 7c2 6 9 9 15 5l1-3c2-1 2-2 2-3 0-2 3-5 5-5l3-2c1-2 4-1 6-1v2c-4 3-6 8-11 11l-2 2-14 12-3 4-5 2-2 1-10 6c-2 1-2 3-1 4v2h-2c-1-2-2-2-3 0l-2 2-8-4s0 1 0 0l7 4c0 1-2 2-1 3l3 2 1 1h-1-1c-2-1-3 0-5 1h-29l-2-1c3-3 4-7 5-10l-1-2-4-1h6l-1-1 3-6 1-3v-1c-2-1 0-2 0-3l4-8v-1l-2 1v-3c2-1 3-4 4-6l1-5-3 2v-1c3-3 3-6 4-8v-3l3-6v-4z" fill="#f0e0ad"/><path d="M483 206v11h-3v3l-1 5v-3l-2-5v-3-1c0-2-1-3-2-2l-4 2-1-1 2-1 2-2-1-1h-8l3-2c2-1 4-1 5-3h1c2 0 2-2 3-4l-6 3c3-2 3-6 5-7l1-2-1-1h-2c1-2 3-2 3-4l-3 1 2-3c0-1 2-2 1-3l1-1v-3l1-2-1-1v-1l2-1 2-3h-3c1-1 0-3 2-4v-3l2-5-1-1-1 3-1-4-2 7-1-1-1 1c0-4 2-7 1-11 1 0 1 2 2 0v-3c0-1-1-2-2-1v-3l-1-2-1 4h-1l-1 1-1-8 2 3 2-3v-3h-1c-1 2-1 0-1 0v-1l-2 1s0-2-2-2v-1-4l-2 3v-3l1-4h-1l-1-1 1-4v-3l3 2c0-4-1-8-4-11 2-1 2 1 3 1l-7-7h4l-3-3h3l3 1c0-2-2-2-2-3l-3-3c2 0 5 0 8 2l2 4c2 3 3 3 6 2-1 5 0 9 1 14l1 3v1l1-1h1c-1 7 1 14 2 21 0 1 0 2 2 3v11c0 2 0 3 2 4v2l-2 6-1 9c0 8-2 16-5 24v5z" fill="#844f11"/><path d="M202 177l-2-1 2-1 3-4 5-5 1-2 3-11 2-12-1-9v-4l2 4v-12-2c0-1-1-2 1-2v-12l1-15 4-8c1-2 2-3 5-2l7 3 2 2v-7l4 10c-1 1-1 0-2-1-2-2-5-1-7-1-1 0-2 0-1 1l-2 4c-1 1-1 2 1 3 1 0 2 0 1 2l-1 3 2 1-1 3-2 3c3 1 3 1 2 3v2c2 2 0 4 0 6 0 1-1 1 1 2v2c-1 2-2 3-1 6l-2 3 3 3v1l-4 5-2 1-4 5c3 0 3 1 2 2l-2 3c2 0 2 0 2 2l1 1c2 0 1 2 1 2l-5 7-1 1h-1l-4 5c0 1 0 2-1 1l-2-2c0 2-2 3-4 4l-4 6-2 1z" fill="#e4b051"/><path d="M202 177l2-3 4-5 1-1c2 0 2-2 3-3h1v3l6-9v2h1l4-6 1-2h-1l-1-3c-1-1-1 1-2 1 0-3 2-4 3-6l-3 1 2-5 2-2c1-2 3-2 4-2l-1-2 2-1 1-1c-1-1-2-3-4-2l2-4 1-1c-1-2 0-3 1-5v-1c1-2 1-2-1-2h-1l2-5c0-1 1-2-1-2 0 1 0 0 0 0l1-3v-1h-3l4-7h-3l2-6h-3l-1-2 3-4-1-2 4-2c3 0 5 1 7 3l1 1c2 2 5 4 6 7-2-2-5-2-6-4l-3-2h1v3c-1 1-2 0-2-1l-4-2 1 1c2 2 3 3 2 5v3l-1 4c1 0 2-2 3-1v3l-1 5 2-2c1-2 1-1 2 0v8s0 2-1 1l-1-1c-2 3-5 6-5 11l1 1h1c0-1 0-3 1-2l1 2-1 5v1h3c2 1 3 2 3 4v4h-3l4 5c1 2 1 2-1 3l-5 1c-1 0-3-1-2 1l-1 1-5 1h2v2l-3 2c0 1 2 0 1 2l-2 1-3 3-1 2-2 3 3-2h3l-2 2-5 6-1-2c-2 0-2 3-4 3l-1-2c-1 3-3 6-6 7v-2h-1c-2 1-4 2-6 1h-1v-2z" fill="#c99536"/><path d="M439 102c0 2 0 2 3 1l-1 2-1 1 4 2c-3 0-5 0-6 2l5 1-2 1-2 1c-3 0-3 1-2 3l-1 5-1-4-4 7c-1 2-1 5-4 7l2-6c-3 2-4 6-6 8v-2l-4 5-2 2c0 1 0 2-1 1h-1l-2 4-1 1v-3c-4 4-6 9-9 14l2-7-5 5 3-6 4-6-8 7-2 1 4-4v-1l3-3h-2l8-8h-1l3-3 10-9 4-6 1-3v2l6-6v1l6-7z" fill="#e4b051"/><path d="M108 333v-1c2 0 2 0 2-2l2-1a1080 1080 0 0119 1l-7 1h-7l-3 1h-3 3l4-1 16-1h5v7h-1l-14 1-14 1h-1v-2l1-4h-2z" fill="#f0e0ad"/><path d="M385 662h-2l19-3a254 254 0 0041-12l19-7 10-5h2l-11 5c-6 4-13 6-20 9a206 206 0 01-53 13h-5z" fill="#e3c373"/><path d="M117 331h1l9-1 4-1h-18l-3 1h-3v-1h24l10 1h10l1 1-2 1h-6l-4-1h-9-14z" fill="#ae9576"/><path d="M109 316l-7-1H75l-2-1h24l11 2h1z" fill="#d2cdcd"/><path d="M85 340l3-1h21v1h-4l2-1-13 1h-9zM85 340h-1l-5 1h-6l9-1h3z" fill="#d3caca"/><path d="M107 330h-9l9-1zM105 333l-4 1 4-1zM108 333h-3 3z" fill="#f0e0ad"/><path d="M291 663l2 1-2-1zM388 662h2-2zM286 663h2-2z" fill="#e8d091"/><path d="M120 291h-1 1zM108 381l-1 1 1-1z" fill="#f0e0ad"/><path d="M278 662h2-2zM282 662l2 1-2-1z" fill="#e8d091"/><path d="M105 350h-1 1z" fill="#f0e0ad"/><path d="M257 659h2l-2-1zM260 659h0zM265 660h0zM268 660l1 1-1-1z" fill="#e8d091"/><path d="M402 144h-1 1z" fill="#c99536"/><path d="M274 661l2 1-2-1zM271 661h2-2zM341 504l4-1c5 0 8-2 11-5l1-1v-1h-1l-7 3h-1l4-5 9-3c5-1 10-4 14-7v-1c-3-1-6 0-10 2l5-6-6 3 1-2c2 0 2-2 4-3 0-2 3-3 4-4l2-1-2 3 3-1c2 0 3-1 4-3 0-2 0-2 2-1l-1 1v2h5v1c-2 4-5 7-6 12l4-3c1-1 3-3 3-5l2-2c2-3 2-6 0-9l2-2v-2l1-3-5 3-4 3c-1 1-3 2-5 1-3-1-6 1-8 2v3l-8 4h-2l-1-1-1-1-5 1-2 1v-2l5-8 1-1 2-1 3-4 3-3-1 4v3c1 1 2 0 3-1 2-1 2-3 2-5v-2c3 1 5 0 7-2l2-3h-6l5-2h3c3-1 5-3 6-6l-2-2h-4l8-7c3-1 3-3 3-6l-5 3 1-6-10 12 5-10-4 2 9-10-1 5c2 0 2 0 3-2 1-3 2-5 5-7v3c1 1 2 0 2-1l5-3v2 1h2l2-4 2-6-7 4c0-2 2-4 4-6 3-1 4-3 6-5v4l4-3v3l1-2 4-6c2-1 3-2 3-4 0-1 0-2 2-2v-1-3c-2 1-3 3-5 3h-3l1-3 7-4c4-1 6-3 7-7l-3 2 1-3-5 3-4 3v-2l-7 5h2l-1 2-6 4h-1v-1l1-3v-2l-10 7 1 1-12 7v-4l-11 5v1l-1 1-6 4v-4l-8 9v-4l-3 3-1 4 1 2h2l-4 5 2 1c0 2-6 4-11 4 0-2 2-2 3-3l2-3-7 3c-3 0-5 1-8 3 3 0 6 2 8 3h2l-1 1-5 3-2 1 6-1c-2 3-5 4-11 5l1 1 1 2h-15-1l6 5-2 1-14 2-2 1h6c1 1 0 1-1 2-3 2-4 5-6 8l-1 2v-4c-2 1-3 3-3 6l1 6-2-1c-3-2-5-3-9-2h-1c0-2-1 0-2 0l-3 2-2 1c-1-1-2 0-2 1-2 2-5 2-7 1l-1-1a5 5 0 00-9-1h-2l-2-4c-1-2-2-4-5-5-2-1-4-1-5 1l-1 1-1-3-2 2c-2-3-3-6-7-7l3-2-9-1 6-1 5-1-4-1 4-1h9c4 0 7-1 11-4-3-1-8 0-11-2h9l6-2-8-1 11-3-3-2c4 0 8-2 13-1h7l3-1h-4v-1c2-1 5-1 7-5h-6l8-1v-1l2-2-2-1 2-1 3-3h1c2 0 2-2 3-3 0 0 1-1-1-2v-1l-1-4v-1c-2 0-2-1-2-2l-5-8h3l-4-3-12-5-3-1-3-2c0-2 1-2 3-3h1l-4-2 5-7h2l6 1-6-1-1-1h-1c0-2-3-4 0-6v-3l-2 1-1-2v-1c-1-2-1-2 1-3h2l6 1c-1 2-3 1-5 1l2 6 4 5v-3l2 2c1 1 2 3 4 3l7 2 1 1-2 1c4 0 5 3 6 5 0 1 0 3 2 2h1l2 3-1-4c1-1 1-2 2-1h3c1-2 3-3 5-3h2l1-2-1-1c-2 1-2 0-2-1l1-5v-1l2 1 1 4c1-1 1-2 2-1l1 1 2 4v1h-3v4h1l1-1c3-2 3-1 4 2l1 2 3-3 4 1 3 4 6-8 3-2c1 0 3-1 3 1h1l2-2c3-3 6-6 10-7l5 1c1 1 2 1 2-1l1-2c1-2 2-3 4-3 2 1 3 0 4-1 1-2 3-3 6-3l9-3h5l2-1h4l1 1h4l2-2c1-1 2-2 3 0l2 1h13l11-1c2 1 4 1 6-1l2-1c2 0 5 3 5 5v1l-3 9-4-6v6l1 11c0 4 0 7-2 11-1-2 0-3-2-5l-1 7-3 7-1-11c-4 5-7 10-6 17l2-4 1 14 3-5-1 6-3 3-5 8-1 1-1-7c-2 2-2 5-3 7l-4 7-1-2c-3 5-3 10-4 15l3-4c-1 5-5 13-12 14l-5 1-2 2h5l11-3 4-3 11-8 2-1-1 3-6 6-4 4c-2 4-5 7-8 9l-5 3 7-2 6-2-8 10 6-3h1l-7 10 13-8c-1 2 0 4 1 5v5a30 30 0 01-10 14l-5 7c-1 3-3 5-6 6-5 2-10 1-15-3h5l3-1v-3h-8c-2 1-4 2-6 1l3-1v-1l-1-1-4 1-9 2c-2 0-4 1-5 4v-3l2-5c1-2 1-2-1-2h-4v-1l1-1-2-1-5 2-6 4h-1l2-3c-7 3-12 7-19 8l4-3h-9l1-2z" fill="#e8d091"/><path d="M463 358l-4-3h-3c-2 2-4 2-6 1l-13 1h-4l-2-1h-2c-2 2-2 2-4 1l-1-1c-2-2-2-2-4 0l-1 2h-4l-2-2h-2l-3 2c-2 1-3 1-4-1l-6 3h-4c-2 0-5 1-6 3s-2 3-4 2c-2 0-3 0-4 2l-1 4h-3c-1-2-3-2-4-1-4 1-8 3-10 7l-3 3-1-3c-4 1-9 5-11 12l-4-5c-2-2-2-2-3-1l-4 3-1-3-1-2h-2l-2 2-1-5c0-1 1-2 2-1l1 1h1l-2-3-2-3-1 2-3-6-1 7h2l2 3-5 1-4 2c-2 2-2 2-4 0v7l-3-5-1 1-1 1v-1l-2-5-4-3 2-1-3-2v-2h1l-4-4c0 2-2 1-3 1l6 5c1 1 2 1 1 2-1 0-3 0-4-2h-3l-4-4-1-1v4l-3-4c0-1 0-2-2-1l-1-1v-1-5l-1-1h6c2 0 3 2 4 3 1 0 0 0 0 0v-2h2l2 1c-2-1-3-3-2-4l-1-3v-3l2-1h5-11l-7-1v-4l2-1v2l2-2 2 2c0 1 0 0 0 0l-1-5-1-1c-1 1-1 0-1-1l1-2c-1 0-2 1-3-1 0-1 0-2 2-2-3-3 0-6 1-8-1 0-2 0-2-2v-3c0-2-1-3 1-3v-4l3 3h1c2 0 2 0 2-2 2 1 3 3 5 3l4-1 2-1h4l2 1c2 1 2 2 3 0l4-1v3h2l-1 2c3-2 6-4 10-4v1l7-2-2-1 1-1h-3l7-6v2l5-4c0 3-2 4-3 6 2 0 2 0 7-6v2l4-4 6-7-1 1c3-1 5-3 5-6l2-4 1 3c3-1 4-4 4-8 2 1 1 2 2 3v-6l1-3c0-1 0-2 1-1l2-1 3-1c0 1-2 1-1 3l4-3 5 1 5 1 4-2-1 2h1l10-4h7c0 2-1 2-2 3l-6 2 6 1h5c4-1 9 0 11 2h-2c5 4 12 5 15 2l-5-1 1-1 1-1-2-1h-3 3l-7-2 6-1 6-2-2 2 5-1 5-2-2 6h2l-5 7c2 0 5-1 6-3v-1l1-2 2-3c0-1 1-2 3-2l-1 3c-1 2 0 3 2 3h1l-1 2-2 2c-1 1 0 2 1 2l4-1h2l-4 3h3c0 2 0 3 2 3l4-1h2l-6 4h4l-4 2c-2 3-2 5 1 6h2l-4 4c4 1 6-1 9-1l-5 4h7l-6 3-4 1 3 5-3 1 3 2-2 1c1 1 2 3 4 3l-1 1h5l-7 6 2 1-4 3 4 1c-1 2-3 3-5 3 1 2 6 4 9 5l-2 2 3 1c-2 2-3 4-3 7-1 3-2 4-4 3z" fill="#fbeeca"/><path d="M288 318c-2 1-1 2 0 3v4h2c-1 2-1 4-3 5 0 1-1 1 1 2v2h1l-2 1-1 1 1 1h1l2-1-2 4c2 0 1-1 3-2l-1 3h-17-1c-1-2-3-3-5-2l-2-1 2-1c2 0 2-1 2-3 0-3-2-4-3-5l-2-2h-1l-4-1c-1 0-3-1-3-3l-3-1c-2 0-3 0-4-3l-1-1c-2 1-3 0-5-1h-2c-1 1-2 2-4 1-1-1-2 0-3 1l-1 3-4-1h-3-2l-5-4-14-7c-10-6-20-6-31-4h-4c0-2 1-3 3-4l7-6 7-7 5-5 8-8v-1l5-4 8-6h0l1-2c1-1 2-1 2-3l3-2c2-1 4-1 5-3 1 0 1-1 1 1h1l4-3-4 4-4 3c3 0 6 0 9-2l-2 2c-4 1-7 3-10 6h-1l-1 3 4-2c-1 3-4 3-5 5h4l-4 2-2 3-1 2-1 2v5h2l7-6h1l-1-1h-2l4-2c1 0 3 0 5-2h-2l-1-1h1l8-2 1-1-5-1c4-2 8-2 11-6 1 2 1 2-1 4 2 0 2-1 5-5v3c0 3 0 3 4 4-2-2-1-3 0-5l5-6 1 4c2-3 2-7 3-10l1 4 7-10v9c2 0 3-2 5-1-2 4-5 7-5 12l-2-2-1 5v5l-2-2v7c1 2 0 4-1 6l-1-7c-1 1-1 3-3 3 0-2 0-4-3-5 3 3 2 7 3 11l1-4c2 1 2 3 1 4v9l2-2c1 2 1 4-1 10 5-1 8-4 9-8l1-4 1-2 1-3 1-2 3 3 3 2c-2 0-2 1-2 3l2 6 1-2v-2l2 1 2 5v2c-3 3-2 7-1 11l1-2 1 3v2c1 1 1 2 2 1l2-1z" fill="#eac27a"/><path d="M437 512l-1 1v-1l4-8 7-7 3-2h-3l3-4 1-2c-1 0 0 0 0 0l3-4 2-5h-1l2-3s1-1-1-1l1-1 2-5 2-2-3 1c0 1-1 2-2 1l-2 2-3 4-6 2c1-2 3-3 3-5-2 1-3 2-5 1l2-2-5-2 8-7-7 3 7-5c-2-2-4 0-6-1l2-2 3-2c2 0 3-1 3-2l-1-1 5-4 2-1 1-1 5-2 7-6c-3 0-5 1-8 3l3-3 2-2 3-3 4-1 3-2h-6l9-6-6 1 5-4 4-2 2-2-9 1 2-3 10-2 6-4-2-1c2-2 5-4 6-7l1 1v2c3-3 4-6 5-10l2 2c2-5 2-10 2-15l1 2v8l1 7 1 7-1 1-2-5-4 15h-1l-1-2c-1-1-1 0-2 1-2 2-4 5-4 8l3-2c-1 4-4 11-7 13l2-6-9 11-1 4 7-4-1 5 2-1c1 1 0 2-1 5-1 2-3 2-4 5l4-2-2 4-4 4 6-1-1 2-8 4-2 3-3 10-7 12 2-8c-4 7-9 14-16 18l2-4-7 7-8 5-1-2-4 6z" fill="#bb7a20"/><path d="M323 250c-4 0-9-1-13 3 0 1-1 2-3 1v1c-2 2-6 3-8 6v-3c-2 0-2 2-3 3h-5l-1 1-1-1h-2c-1 1-1 1-2-1l-2-1c-1-1 0-2 1-3-2 0-2 2-3 1 0-2 3-4 3-7-1 1-1 2-3 2l2-5-3 4v-5-5-5c2 1 1 2 2 3l1-4v-5c0-1 0-2 1-1l1-1 1-5 1-3h2l2-3 1 3 4-7v2l5-5h3l2-1h2l1 1h7l1 1 1 1h3v3h3l1 1 4 4-2 2 2 2 4 4h-2c-2 1-3 2-3 4v1c-3 2-3 4 0 6-1 1-3 2-1 4l-3 1c3 1 4 3 7 3v3h1l3 4h-2l-10-4z" fill="#e4b051"/><path d="M427 180h-2v-1c2-1 3-3 5-3h-6l-3-1 2-1 7-4-2-1 2-1 5-1h-2l-1-1 1-1c4-1 8-1 11 1 4 2 8 2 13 0 2-2 2-1 3 1 2 3 2 6 3 10 0 0 1 2-1 1v8l-1 2-1-2-1-1c0 1-2 0-2 2l-1 7-2 3c-2 1-3 2-3 4l-4 5c0 1 0 2-1 1v-1-2l-2 6-1 2-1-2-2 6v1l-1-2v-2l-4 2-2 3-5 5-1-4v-1-1l-1-1-2-1 1-1-3 1s-1 2-2 0h-1l-8 1h-6l6-3h-2l6-4 7-6c0 1-1 2-2 1l1-2 13-10-3 1-3 1c0 1-1 2-2 1s0-2 1-2l5-4-8 4h-2l1-1 7-6 11-5-6 1-1 1h-2c-1-1 0-1 1-2s2-1 2-3l-8 2z" fill="#844f11"/><path d="M435 215v-1h2l2-2h1v4l3-8v3l4-9-1 5c2-3 4-5 5-9l1-1 3-2-1-1 2-6v-2l1-2 1 1 1-2 1 2v2l1-10 1 1v-1l-1-4v-3l-2-4-1-1-1 1c-4 2-9 2-13 0h-12l5 1c-3 1-6 0-8 2h3c-3 3-6 4-10 5l5-4c-2-1-2 1-4 1l3-3 6-5 2-2 1-1 3-2-5 1 2-2 3-1-1-1c-2 1-4 2-7 1l-2-1 2-1 2-1c-1-1-3-1-3-3h4l3-1 1-1c-1-1 0-2 1-3l4-4 2-2 1-2h-3l8-10c-1 4 1 7 1 10l1 1 4 3v-2l4 8v1l1-1 3-4 1-2 1 7 2-1v2l-2 4c0 1-1 1 1 2v2l-1 2v1l-2 1v1h1l2-1-1 3 2-1 1-2v3l3-4-2 6c-2 0-3 1-3 3h1l-1 2 1 1v3l2-1c0-2 2-3 3-5v2l-2 4-1 1c-2 2-2 5-3 8l4-3-5 9-7 6h3l-6 5-6 6 3-1c-2 3-5 6-6 10l-1-5c-2 1-2 4-3 6v-3c-2 2-2 3-3 9l-1-2-1-2-1 2-1-4-1-2zM235 98l1-4-1-2-4-4c3 0 5 2 8 4l-2-5 5 4 2 1 1 1 2 1 3 6 2 3-2-1 2 4a47 47 0 018 10h-2l4 5 1 2c0 2 2 4 3 5l2 3v4l9 10 6 2 1 1-6 1h-5l-2 1c-2 0-2-1-3-2l-4-2-5-5-2-2c-1 1 0 2-2 2l-1-3v-4-1l-1 1-1 1v-2-5c-2 1-2 1-3-5v1l-1 2c-2 0-2-2-2-3l-1-8c0-1 0-3-2-2l-1-2-1-7c0-2-4-6-6-6z" fill="#bb7a20"/><path d="M235 98v-1h2l4 4 1 3 1 8v1l2-2 1 3v6l2 6c0-2 0-3 2-4v3l1 3c1 1 0 0 1-1l1 8 1-3c2 2 2 3 1 6l1 3v-2l1-1 1 1h1l4 5c0 1 1 2 3 1l1 1 4 4h-2l-4 1h-1-2l-5-1 1 2-10-5c-2 1-3 0-4-2l-3-3-2-3 4 2-2-5 2 2c-1-3-2-5-4-6v3c-2 0-1-2-2-3l-1 1 1-9-2 3v-1l-2 1v-1l1-5 2-3c1-2 3-3 3-6v3c3-3 2-6 0-10l-4 5 2-5v-4c-1 0-1 2-3 2l1-5z" fill="#844f11"/><path d="M481 247v-5l-1-1-1 1v1l-2-3-1 4v1h-1-1l-3 2c3 1 6 0 9-1 0 2-1 2-2 3l-1 4 4-1c0 2-1 4-3 5v4l2 2h-4c0 2 1 2 4 5h-3a429 429 0 002 14l-1-1-6-11c-2-1-3-3-4-6l5 4-5-10-1 2-11-11 2 1h2l3-2 2-1h-3c-1-1-2-1-1-3v-1l-1-1-1 1-2 3v-4l-2-3c2 0 2 2 3 2 0-3-1-4-4-6h5c-3-2-5-4-5-8 2 2 4 4 7 4 0-2-2-3-3-5 5 1 8 5 11 7l1-1v-1h1v7l-2-2c0 2-1 3-3 4-1 1-3 2-3 4-1 1 0 1 1 1h2c1 0 2 0 1-2l3-1h2l2-3 1-4v1l3-4c2 1 0 4 2 5l1-2 1 3 1 1v1l1 5-1 1-2 1zM261 225l-1-6-1-5 1-4 2 5 1-7c1 0 1 2 2 1v-5h1l2-4 1-4v-1l2-6h3l1-5 1 1 1-1v-1-1l1 1 1 2 2 3 1 1-4 9-1-1-1 6v1c0 2 0 2-2 1 0 3-1 5-3 8l-1 1-3 4v4c0 1 1 2-1 2v3l2 5c-2 0-3-2-4-3l-1 4-2 6h-1v-1-4l-1-2-1 3-3-12 3 3 1-3 2 2zM418 153v1h2c-1 4-5 8-8 11h3l-4 3-5 5v1l-1 4 2-1-1 2v2l-1 2-3 2 3 1-1 2c-2 1-2 2-2 4l1 1c-2 2 0 3 0 5l2 4h-1c-2 0-2 0-2 2l2 7-1-1-5-7-2-6-1-4-2-1v3l-4-5-1 2-4-9 1-1c1 2 3 1 5 2 2 0 3 2 3 4l2-7 3-6c7-6 14-13 19-21l1-1z" fill="#bb7a20"/><path d="M323 250l5 2 7 3a802 802 0 0119 18c1 2 1 4-1 6l-3 3-7 7c-2 3-5 5-8 6l-9 3c-8 0-15-2-22-4l-9-2-2-1c-2 0-3-1-3-3l-4-5-3-4c-1 0-2-1-1-2 1-3 2-6 5-7 2-1 4-1 5-3l13-8 12-7 6-2z" fill="#8e5d26"/><path d="M292 267l-1 1-4 3c-2 1-4 1-4 4v4l-1 1v1h-1l-8-1h-1l2-2v-1l-3-2c-2-1-2-2-2-3l1-6 2 4 1-3c0-3 0-3 3-3 2 1 4 0 6-1l1 2c2 0 4 0 6 2h3z" fill="#bb7a20"/><path d="M418 153l-7 9-7 9-7 7-1 2-2 9-1 1-1-2c-1-3-1-4-4-4l-3-1h-1l-1-2-2-1h-1l-2-3c-2-1-3-3-3-6l1 1 2 3c1 1 1 2 3 2l1 1 2 1c2 2 7 1 8-3l3-4v1h1l4-5s1-2 2-1l1-1 6-6 1-1c3-1 4-4 6-6 1-1 1-3 3-3l-1 3z" fill="#844f11"/><path d="M244 146l4 1v2l2 2-3 3h-2l-6 1c-1 1-2 1-1 2v1l-6 4c2 1 3-1 5-1l-1 1c-2 2-5 3-8 3l-4 2-3 1 2-3 2-4 1-1 4-2c-1-1-2 0-3-2l6-3-4-1 7-1-1-2h2l7-1v-2z" fill="#bb7a20"/><path d="M427 180l7-3h1v1l-2 4-2 1 3-1c2-2 5-2 7-2l1 1-1 1c-5 0-9 3-13 6l-5 5 10-5-7 7c3-2 5-4 9-4-5 4-11 7-15 12l3-1-8 7 2-4 1-3-1 1h-1l3-4v-1c-1-3 1-4 2-5l5-5h-2l6-6c-3 0-5 2-8 4l4-4c1-1 2-1 1-2zM471 213h1v2l-2 3c0 1 0 2-2 3l-1 2-1 1-1 2-1-2h-1l-1 1-3-2 11-8 1-2zM426 176h5l-6 4-4 2 1-2 4-4z" fill="#bb7b21"/><path d="M463 358c2 0 3-1 4-3v3l-2 5-2-5z" fill="#e7cd8c"/><path d="M421 175l3 1-4 4c-1-2 1-3 1-5z" fill="#bb7b21"/><path d="M433 218l2-3-1 5-1-2z" fill="#bb7a20"/><path d="M284 313v-2l-1 2z" fill="#eac27a"/><path d="M475 149v0z" fill="#844f11"/><path d="M471 212v1h-1l1-1z" fill="#bb7b21"/><path d="M341 504v4c0 4-2 5-6 5l-4-1c-3 0-3 0-3 4h-1c-3-1-4-1-5 2-1 2-2 3-4 3s-2 1-1 2c1 4 0 4-3 4s-6 1-7 3l-1 1-1-1-1-1-1 2-4 5-3 3-2-3h-1l-2 5v6l-2-3-1 5-4 4v-5l-3 3-1 6 1 5-1 4-1 4c-1-1 0-3-2-3l-3 4v-1l-1-1-3 2v3l1 1 2 2-2 4-3 1-3 4 2-1-6 8h-1c0-2 0-2-2-1l-6 7 3-1c-4 5-9 8-15 10v-2h-3l-5 5c-2 2-4 2-6 0l-2-3-1-1-1-3-4-7-1-5h1l1-1c1-2 2-5 1-8-1 1-1 1-2-1l-2-4v-1l-1 1-1 2-1-7 1-4h-2c1-2 1-5-1-7l-1 1-1-2-1-3-1 2v-1l-5-5-3-4v-1s1 0 0 0c-1-2-1-5-3-6l-1 1h-1l-1-2-1-1c-1 1-2-1-2-2-1-3-3-4-5-6-1 0-2-1-2-3 1-1 0-2-1-2h-2-1c-2-1-3-2-3-4s0-2-2-1l-1-1-1-2-2-1c-2 0-3-1-4-3h-1v3l-1-3v-4l1-1c-1-1-2-3-4-2h-1l-1-2c0-2-2-4-4-5l-1-2-2-3-1-2c0-1 0-3-2-3l-1-1-1-3-1-1c0-2-1-4-3-5v-2-3l-1-2c-3-1-3-2-2-4l1-3-1-2v-2l-1-4-1-4v-1-1c-3-2-4-5-5-8l-1-1v-2h2l-2-1c-1-1-2-2-1-3l-1-5v-1-1c1 0 2-2 2 0l1 5 1-1v1c0 3 3 4 4 5h1c1-1 1 0 2 1l1 5 1 2 1-1v1l2 1 1 2 3 3c-1 0-2 1-1 2 1 2 4 5 4 9 1-2 1-2 2-1l3 5c1 1 1 2-1 2l2 2h1c-1 3 1 3 2 4l6 2c2 2 3 3 2 5 3-1 4-1 5 3 0 1 0 2 2 1l1 2 2 2 6 3 3 2c2 3 4 5 8 7v-1c0-1-2-1-1-2 1-2 2 0 3 0l8 6 1 1h-2l-2-1 7 7c1 1 3 2 3 4v1h-1l-8-6-1-1 5 6 3 4 6 6c1 3 4 4 7 5l-3-6 1-1h1l3 3-3-5 1-2 1 1 7 8 1 2h-2-2c3 0 5 2 7 3 1 1 3 1 2 3l1 3v1h-1l-1-2c1 3 3 6 3 10v1c2 2 3 4 2 6s0 3 1 3l2 6 1-2h2l1-3 2-2v2c0-4 2-6 5-9 1-1 3-1 1-3l1-2 3-8-3 4-2 1-1 1v-2l1-2 5-8 2-2v3l1-1h2v2l-1 4v1c2 1 1 2 1 4 2-4 4-7 4-11l4-8c1-1 1-2 2-1v2c0-1 2-3-1-3v-1l1-5c1-2 2-2 3 0h5l3-3 1-2-4 1h-2l1-1c2-1 3-3 5-3 1-1 3-2 4 0l1 1h3l6-4 1 1 1-5c2-2 2-2 4 0 1-4 4-6 8-6l4-2v-1h-3c0-2 1-2 2-2l9-2c-1 0-3 1-3-1-1-1 1-1 2-2l5-2c2-1 4-2 4-5l3-2 2 1h9l-1 1-5 4-6 5-6 5-1 2h2c3-1 5 0 8 1l1 3c-2 0-2 0-2 2z" fill="#e4b051"/><path d="M525 526l-2 5h-2l1-6 1 3 1-3 1 1z" fill="#d79f39"/><path d="M341 481l-2 1s-2 1 0 1v1c-1 2-3 4-6 5l-6 3h4l-1 1-7 1c-2 0-3 1-4 3l4-1-5 4c-4 1-7 2-8 6v1c-2 0-1-2-2-2-3 1-2 5-4 7v-2h-1l-2 3c-1 1-2-1-2 1l-2 2h-1v-2c-1 0-2 2-3 1v-2c-4 0-6 2-9 4l5-2h1l1 1-3 4-1 1c-1 1-1 2-2 0l-5 2v-1-2l-2 1-1 5 1 1h1v1l-3 3 1-3-2 4-1 1-2 5c1 2 0 3-1 5l-3 6h-1v-4l-2 1c1-3 3-5 3-9l-4 2 1-4-9 13c3-1 5-5 8-7l-5 12c2 0 2 0 1 2l-2 2c-3 2-4 5-5 8l-1 1v-3l-2 6-1-1-4 4c1-3 0-5-1-7-2-2-2-3-1-5s0-3-1-4l-1-3-2-6-1-2-1-2 4 3-3-5h2l-10-6 4 1-9-10 4 7-3-1-3-2 3 6-6-2c-2-1-3-3-3-5l-2-1-9-10-3-4 12 8-4-4-8-9 5 2c-3-3-7-6-12-7l3 4c-3-2-6-2-8-5l-2-2c0-2-2-3-3-3l-4-2h-1c-2-1-3-1-3-4h-1l-2-1-1-4h-5c0-1 2-1 1-2l-1-2-4-2-6-3-1-1 2-1-4-3h3l-4-7-2 2-1-3-1-3-1-2-3-4c2 0 2 2 3 1h1c2 1 4 3 5 6 0 2 2 3 3 4h1c1-2 3-1 3 0l7 8 1 1c2 0 4 0 4 2h1c2-1 2 1 2 3 0 1 1 3 3 2h1c1 3 4 3 6 5s4 2 6 2l8 4 5 2h1c3 3 6 0 10 0h8c-1 3-1 3 2 3h5c3-2 7-1 10-1h1c0 3 1 1 2 1l2-1c3-3 5-3 8-2a51 51 0 007 1c1 2 2 1 4 0l4-1 4-1h1v2l-1 1 7-2 6-3-1 2 6-1h2c1-1 2 0 2 1l4-3-2-1 13 1-1-1v-2c3 2 6 3 9 2 4-1 6-3 9-5 0 2 0 2 1 1a228 228 0 009-6l6-6 3-1-4 4 4-2c-1 2-4 4-7 5z" fill="#bb7a20"/><path d="M215 411c-2-4-8-4-11 0l-1 1-1-3c-1-1-1-2-2 0h-7c-2 2-4 1-4-1s-1-2-3-2c-3-1-6-1-8-3-1-1-2-2-4-1-3 1-4 0-5-3l-3-3c-3-1-4-3-4-6v-2c-1-4 1-6 3-9 3 0 6-1 10 1l-3 1h-5c-1 1-2 1-1 2l11 5 22 5c1 0 2 0 3 2 1-2 2-1 3 0 3 1 6 0 9 3 4-1 8 1 13 3l15 6 3 1c1 1 0 2-1 2l-4 2c-1 2-3 2-4 1h-5l-4-1-7-1h-1c-1-2-2-1-4 0z" fill="#5a4d40"/><path d="M256 366v2l-2-1c-3 0-4 2-3 4l2 1c1 3 0 4-3 4 0-1-3-2-2-4-2 1-4 0-6-1v-1h1l2 1-1-1h-1c-1 0-3 0-3-2h-5l-1-1c-1 0-3-1-2-3-1-1-1 2-3 1l-2-1-1-1-1-3h5l4 1h-1l-3-1h-5c-2 0-3-1-3-2 0-2 1-3 2-3 1 1 1 0 1-1 0-2 2-2 3-3l2-1h8l4 1h2l3-1 13 1c2 1 3 2 2 4h-5-23 23l4 1h1v7c1 2 0 2-2 1h-4l-6-1-3-1-6-1-4-1 3 1 7 1h3l5 1 5 1c1 1 2 0 2 2h-6l-3-1h-6l1 2v1l2-1c1-2 2-2 3-2l3 1z" fill="#fff"/><path d="M215 411l1-3 3 2 2 1c2-1 3 0 5 1l3 1 3-1h3c1 1 2 2 3 1l2-1c1-2 2-3 4-2 1 0 2 0 1-2 1-2 3-2 5-2h15l2-1 2-1c1-2 3-2 4-1 3 0 4-1 5-3l5-2 6-1 1-2h-2l-10 2-2 1h-15c-4-1-8 1-11 3l-7 2-2-1 7-3 3-2 5-1h1l1-1c2 2 4 0 7 0 1 0 3 0 4 2l2-1c0-1 1-2 3-2l3-1c1-1 2-2 3-1h4l2-1c4-2 5-1 7 3v3c0 3-2 5-5 6-2 1-5 1-7 3l-1-1c-1 0-3 0-4 2h-2l-2 1h-4l-1 1h-4l-2 1h-2l-5 1h-1c-1 2-3 1-4 2l-3 1h-5l-3 2c0 2-1 2-3 2h-1l-6-1c-3 0-5-1-7-3l-5-2 2 11-3-12zM165 380l-3 6v1l1 4 2 4 3 2 2 3c0 2 1 2 3 2 3-1 4-1 6 1 0 1 2 2 3 1h1c2 2 3 1 5 1l2 2v1c0 2 1 2 2 1h4c2 1 3 1 3-1 1-2 2-2 3 0l1 4-5 3c-2 2-4 2-6 2h-2c-1 1-2-1-3-1h-3l-1-1h-2l-4-2c-1-2-4-2-5-3l-3-4-1-2c-2 0-2-1-3-2l-1-1c-4-2-5-5-7-9v-4l-2-1c1-2 2-4 5-5l3-2h2z" fill="#b6985f"/><path d="M221 496l-6 1-4 1-2-1-3-1-5-2-6-3-6-2-1-1c-1-1-2-2-3-1l-3-2c0-2-1-2-2-2-2 1-2 0-3-1v-3l-1-1v1l-1 1-1-3c-1-1-1-2-2 0l-1-1-5-5c-2-1-3-4-6-5v2a203 203 0 01-5-5c0-3-2-4-3-5l-2-1 3 1h2c1-2 1 0 2 1l2 3 3 2 11 8v1c-1 0 0 0 0 0l1 1 9 4-5 1 6 3 3 1c4 3 9 4 13 5l3 1 1 1 3 1c3 1 6 2 9 1h2l-2 2 5 2z" fill="#e4b051"/><path d="M230 379l-2 1c0 1 1 3-1 4l-1-1-2-2-3-3c0 1 3 2 2 3-2 2-3 1-5 2-2 0-1-2-1-3l-1 1-2-1c0-2-1-1-2 0h-1c-2-2-2-3 0-5 1-1-1-2-1-3l1-2 3 2 3 3-3-3-4-3c-1 0-2-1-1-2 0-2-1-3-2-3-1-1-3-1-2-3v-1h3c2 1 4-1 5-1h3c1-1 2 1 4 1h1l1 2 4 3v2l-2 1-6-2-1-2-2-1-1 1 2 1 8 4 1 2c0 1-1 2 1 3l3 2c2 0 2 1 1 3z" fill="#b3ae9f"/><path d="M230 379v-1l-1-1c-1 0-3 0-3-2h-1c-2-2-2-2 0-4v-1l-1-1v-1l11 8-3-2-2-4-1-1c-2 1-3 0-5-1l2-1v-1l-2-2-2-1v-1h1l4 2 8 4c2 2 6 2 8 3l6 3 1 2-2 3h-1l-3-1c-1-1-2-1-3 1h-2l-2-1 2 2-2-1-3-1h-1c0 2-2 2-3 1z" fill="#fff"/><path d="M271 496l-9 3 1-2-9-1h-3l-2 2-6 2 1-2-11 1h-9v-1l2-2 5 1-2-2h1l10 2h3c2 0 5 0 7-2h12c3-1 6-1 9 1z" fill="#e3af51"/><path d="M241 402h4l8-4 8-1 11 1h4l-6 2-19 2-4 1c-2 2-5 2-8 1l-5-3c1-2 3-1 4-1l2 2h1z" fill="#5b4c3f"/><path d="M225 386l3 10 1 1-1 1-3-1-9-4-4-3v-4c1-1 1 0 2 1l3 4 3 1 1-3v-3l2-1v5c0 2 1 3 3 4l-2-7v-1h1z" fill="#b3955d"/><path d="M204 412c1-3 3-5 7-5l3 1 1 3h-4-1c-1-1-3 0-5 1l-1 1 1 5v10l-1-16z" fill="#b5995f"/><path d="M250 376c-1 0-1-2-3-2h-1l-4-3h-3l-2-1-2-3h5c0 2 2 2 3 3h-2l4 2h2l1 1 2 1v2z" fill="#a59783"/><path d="M229 397l-1-1h6l3 2 3 4-6-2-4-1c-1-1-2-1-1-2z" fill="#b6975f"/><path d="M150 435l-5 5c1-2-1-2-2-2h-1l1-1c1-2 3-2 5-3l2 1z" fill="#efdfaa"/><path d="M225 386h-1l-2-5c1-1 0-1-1-2l-1-2h1l1 1c0 1 1 2 3 2l1 3h1l1 2h-1l-2-1v2z" fill="#5f5644"/><path d="M287 372h-2l-12-3h1c1-2 3-1 5-1l6 3h2v1z" fill="#b09051"/><path d="M233 381l2 1-2 2-2-2 2-1z" fill="#9d8a64"/><path d="M273 369l-7-1-10-2v-1c2-1 4 1 6 1l10 2 1 1z" fill="#b5a48a"/><path d="M228 385l-1-2 1-1v-2c2 1 1 3 1 4v2h-1v-1zM225 386l-1-3v-1l1 1 2 2-2 1z" fill="#948a73"/><path d="M254 367l2 1-2-1z" fill="#b5a48a"/><path d="M194 230l10-5v2l3-3 3-2 1-1 2-2 1-2 2-2 1 2v-2c1-2 4-5 8-5l1 1c-1 1 0 2 1 2 2 0 2 2 2 4l-2-1 2 4v6l-1-3v12c0 1 1-1 1 1l-2 4-4 6 4-2-5 6-3 2v-4c1-2 1-4-1-5l-3-4c-3-6-11-10-18-9h-3z" fill="#bb7a20"/><path d="M194 230c5-1 10-1 15 2 3 1 5 3 6 5l4 7 1 3-1 5-1 2c-2 0-2 2-3 3-1 2-1 4-3 5-6 1-11-3-12-9s2-11 9-12c-4-3-8-4-13-4l-5 5-2 2c-2 1-3 1-4-1 2-4 4-9 7-12l2-1z" fill="#0b0b06"/><path d="M212 261l2-4 1-2c1-2 1-2 3-2l-1 4-6 9c-4 4-10 8-17 8h-3c-5-2-8-4-10-9l-2-6c-1-5 2-10 6-12h1v2c-2 3-1 7 0 10 2 5 7 8 12 8 4 0 6-2 9-3l5-3z" fill="#63604d"/><path d="M194 230l-5 6-4 7-2 3-1-2 5-7 1-1c1-4 3-7 7-9l-1 2-2 1h2z" fill="#bb7a22"/><path d="M211 266l6-9 2 1-3 3h2c-1 2-3 2-5 3h3l-3 2h-2z" fill="#ca983a"/><path d="M216 359h-3c-1 0-3-1-4 1h-4v-1l-1-1-1 1 1 1h1l1 2 1 1c-2 2-2 2 1 4l3 3v2h-2c-2 1-2 2-1 4 2 1 2 3 2 5 2 3 2 6 2 9h-2l-9-3-2-8v-3l1-4 1-1-1-2h-2v1l2 14c1 2 0 3-2 3l-8-4-13-2-2-1h-4l-4-1-2 1h-3l-2 1-2-2c-1-2-3-3-3-5v-1c-1-1-1-3-3-3l-1-2c0-2-2-1-3-2 0-2 1-1 2-2-2 1-2 0-3-1l-1-4 4-8 1-1c0-2 1-3 2-3 1-1 0-3 1-2 2 0 1-1 1-2 2-5 1-9-1-13v-6l1-2v2c1 5 3 9 8 10l5 2 1 2c0 2-1 2-2 2h-8c-1-1-1 0-1 1 0 3 1 6 3 8l5 6 6 5c1 1 2 3 4 3 2 2 6 1 8 1 2 1 3 0 4-1h1c2 1 3 0 3-2l3-2c3 0 3 0 4-3l1-1h1c3 0 3 0 3-3l2-2h1c3 1 3 1 3-2l2-2h8c2 3 1 3-1 5s-4 4-4 6c-2 1-3-1-5-2h-1l5 3 2 1z" fill="#958c77"/><path d="M155 322v7l2 7-1 7v1l1 2-2-1-1 1 1 2-1-1h-1l-1 2v1c0 1 0 2-2 2l-1 2c-1 1-2 2-1 4l-2 1v1h-1-1c-2 1-3 0-3-2v-2h1l1-1h-1l-1-1-1-6 5-1h-5l-1-4h7l-7-1v-2l11-1h-11l-1-2 1-1h7-7l1-3v-2l3 1h1c2-2 5-1 7 0l1-1h-1l-8-1h-2c0-2 1-2 3-2l2 1s0 1 0 0l-3-2-1-2 2-2h1v1h0v-1l3-4c1-1 2 0 3 1v1l1 1 1-1-1-1h-1v-2l2-3 2-1 2-1 7-5h1c0 2-2 3-3 4l-2 2-4 6-1 2z" fill="#fff"/><path d="M138 339h14-34l-9 1v-1l15-1h12l2 1z" fill="#b4977d"/><path d="M158 417c1 2 0 4-2 5l-2 3-5 3c0-2 1-2 2-3h-2l5-5c2 1 3-2 4-3z" fill="#e4c576"/><path d="M143 416l-2 1 4-4 7-5v1 2l-4 2-2 1-4 5 1-3z" fill="#e4c474"/><path d="M140 424l7-4 3-2-1 2c-2 1-3 4-6 5h-3v-1z" fill="#e4c475"/><path d="M148 366h2c2 0 2 0 1 2l-1 1c-1 1-2 1-2-1l-2-2h2z" fill="#fcfcfb"/><path d="M139 342h8v1h-8l-11 1-3 1 7-2 7-1z" fill="#ad9278"/><path d="M146 359c2 1 2 2 2 4h-3l-1-1v-2h1l1-1z" fill="#fff"/><path d="M125 374c-5 0-7 3-10 6l2-2 1-2 2-1c1-1 2-3 4-3 0 1-1 1 1 2z" fill="#bcac84"/><path d="M147 363h1l2 1-1 1-1 1h-2v-2l1-1z" fill="#fafdfc"/><path d="M131 370l6-3c1-1 1 1 2 1l-6 3-2-1z" fill="#aa9976"/><path d="M125 345l-2 1-8 1h-1l8-2h3z" fill="#b49c78"/><path d="M141 356l-8 3-2 1 1-1 6-3h3z" fill="#ad9b77"/><path d="M140 347h7l-1 1h-6v-1z" fill="#ab9386"/><path d="M143 367l3-1-3 1zM146 366h0zM143 367h-2 2zM146 359l-1 1 1-1z" fill="#958c77"/><path d="M140 307l-8-7-4-3-2-3c0-3 0-5 2-8l1 4 2-6 2-1 1-5 1 1 4-8-1-1h-1l4-6h-3l5-6h2v3l4-7h2v-3-1c-1-3 1-4 2-5l1-1h2l2-1 2-2 3-2 3-1v2h1c0 2-2 3-1 5l2-1v4c0 2 0 2-2 2l-1 7v2l2-1-2 7-2-4v6l-2-1 2 5v6c1 0 2 0 1 1-1 3 0 5 1 8v1l-2-2v3l-3-3 2 4 1 2c1 0 2 1 0 2v1l2 3-1 1v1l2 2v1h-1-2c0 1-2 1 0 2h-1l-5 4-1 2-1 1c-1-2-1-1-2-1-1 1-1 3-3 2h-1l-4 1c-2-1-4-3-5-6z" fill="#fbeeca"/><path d="M211 266h2l-10 7-3 2h-3c-1 0-2 0-3 2 0 1-1 2-3 1-2 0-5 3-5 5 2 0 1 1 0 1 0 2-2 3-3 4h1c-1 1-3 3-5 3h-5l-4-2-4-7v-7l1 4 1-9 1-2 1-1-1-3v-11 2c1 2 0 3 2 3v1l1 2 1 1v-1-1h3v-2c-2-3-1-5 0-8v4l1-2 2-1v1c-1 5 0 9 2 13 1 3 3 5 6 7l7 2c5-1 9-3 13-6l4-2z" fill="#e4b051"/><path d="M159 314l3-4 3-2 5-2 8-1a66 66 0 0122 2l6 3c1 1 0 2-1 2-4 6-9 6-15 5l-7-2c-4-1-7-2-10-1-4 2-8 1-12 1l-2-1z" fill="#6b645c"/><path d="M144 313l-1 1-2 1-3 2h-1v-1l1-2-5 2-1 1c-2-1-3-1-2-3l3-6-2 1-1 1-3 3-1 1-1-2 1-4v-3-2l2-4-4 5 2-7 7 5 6 6 5 5z" fill="#fbeeca"/><path d="M182 265c-3-3-4-7-3-12v-2l4-5 2-3c1 1 2 2 4 1l-1 2-2 1c-5 3-8 7-6 12l1 4 1 2z" fill="#958b75"/><path d="M145 323h-1l-8-4 8 4h1z" fill="#ab9d84"/><path d="M144 313l-5-5 1-1 5 6h-1z" fill="#b5a98f"/><path d="M128 321l-6-2 6 2z" fill="#b09c77"/><path d="M146 329h0z" fill="#9e8e76"/><path d="M124 338v-1l13-1h2v1l-7 1h-8z" fill="#ae9375"/><path d="M139 337v-1l8-1 1 1h-6l-3 1z" fill="#ac9589"/><path d="M117 331l-4 1 4-1zM114 332h-3 3z" fill="#ae9576"/><path d="M273 369l-7-2-10-2h4v-1c2 0 2 0 1-1v-3c-1-1-1-3 1-4h9-8l-1-1-1-4 8 1 7 1-6-1-7-1-2-1 1-1 2-1h20l1 1 2 2-1 1h-1l1 2-2 4h-2c-1 0-2 1-1 2 2 0 1 2 1 3l1-2h1l1 1v4l-2 2c2 0 2 1 2 3l-8-2-2-1v1h-2z" fill="#e3c270"/><path d="M304 375l-6-6-2-2 2 1h1v-1-1l7 6h-3l3 3h-2z" fill="#e9d294"/><path d="M284 358v-3l2-1 2-1c2 0 4 3 3 6h-1l-4-1h-2z" fill="#faedc9"/><path d="M287 372v-1a223 223 0 013 2l-3-1z" fill="#e3c270"/><path d="M290 341l1 6c-2-1-2-2-2-3l-1 2-1-2c-1 1-2 1-1 3v1l-1 1-11-1v-3h3l-3-1c-1 0-2-1-1-3h17z" fill="#e9c27a"/><path d="M302 356c1 1 3-1 2 1l6 6h1l-1-3 11 5h-5l3 2 4 2-4-1-5-2c-1-1-1 0-1 1l-2 1v2l-2-4v4l-4-7v4c-2-2 0-4-1-5l-2-6z" fill="#e8d193"/><path d="M290 359l1-1v-1c-1-3-1-3-4-3h-1l2-2-1-2-1-1h-1v-1h1l7 1 2-1h1c2 2 5 1 7 1l1 1h-6c-2 0-2 0-2 2l1 1c0 2 0 3 2 2-1 1-2 0-2 2l2 3h2c-2 1-2 1-2 3-2-1-2-3-4-3l2 4h-1l-3-3-3-2z" fill="#e5ce92"/><path d="M381 299l6-6-4-1 13-3-2 2c3 0 5-3 9-3-4 3-8 6-12 7l-3 2h-2l-3 1-2 1z" fill="#e9d193"/><path d="M310 377v-1l-1-2 5 3v-4l4 4-1-6c2 1 2 2 2 3l2 4h-5l1 3-3-2c-1-1-1 0-2 1l-2-3z" fill="#e8d194"/><path d="M290 341h-18l-1 1-15 1h-1l-1-1c5-2 10-1 14-2l4 1h18z" fill="#b6956b"/><path d="M310 377h-2 2z" fill="#e8d194"/><path d="M159 314c5 0 10 1 15-1h7c3 1 5 3 9 3l8 1 2-1 5-5 1-2c7 3 13 6 18 11l2 3a31 31 0 01-10 20l-3 3-2 2-4 3-2 1-4 3-2 1c-1 2-2 3-4 3l-2 2c-1 2-3 2-5 2-1 2-1 2-3 2h-5-2c-1-2-2-3-3-2s-2 0-2-1l-2-3h-2l-1-1c0-2-1-3-3-3l-1-1v-2l-4-2c1-2 0-3-1-5l-2-5c0-2 1-2 2-1h9c1 0 2-1 1-2l-2-1-6-2c-4-2-6-6-6-11v-1l4-8z"/><path d="M226 320h2c1 2 3 1 4 1 2-1 4-1 4 1l2 2c2 0 4 1 4 3l2 2 5 4-2 2h2l2-1c2 2 0 4 0 6h1l2 2-3 1 3-1 1 2-2 1h-8-1l-1-1v2l10-1 3-1 4 1c1 1 2 2 1 3l-3 1c-7 1-15 2-22 1h-6l-1 1c-2-2-2-3 0-4v-2c-1-1 0-2 1-3v-6-3l-1-3c0-3 0-5-2-7l-1-3z" fill="#fff"/><path d="M254 342c-1-2-1-2-3-1v-2-2-3l2-2 3-1-3 1-4 2c-2-2-3-4-6-5l-2-2c0-2-1-3-2-3h-2l-1-1c-1-2-1-2-3-2l1-3c1-2 2-2 3-1h4c1-2 2-2 3 0h3c2-1 3 0 3 2s0 2 3 2h1l2 2c1 2 1 2 3 2h3l-1 1h1c1-1 2-1 2 1l1 1 4 3v3c1 3 1 3-2 4h-2 3c3 0 3 0 4 2v1l-18 1h-1z" fill="#f0e0ad"/><path d="M226 320c0 3 2 4 3 5l1 2v2l1 5-1 2v3c1 2 1 2-1 4l1 2c1 1 1 2-1 3-2 0-2 0 0 2l-5 1h5l-1 1c-2 2-2 2-1 4h-3l-1 1c-1 1 0 2 1 2h5l1 1h-4v3l-3-1c0-2 0-2-1-1h-1l-1-1-2-1h2c0-1 0 0 0 0-2 0-4 0-5-2 0-1 0-3 2-3l1-2 1-2c2 0 3-1 1-3l-1-2-1 2-1 1-1-2v-3c1 0 2 0 3-2 0-2 1-3 3-1h1c-1-2 0-4 1-6l1-2c2 0 2-1 2-2l-1-5-1-2-1-3h2z" fill="#b3ae9f"/><path d="M310 295l-7-2-10-3c-2-1-2-1-2-3l-1-3-2-4v-1c-1-2 1-4 2-5 6-7 12-12 19-17 4-2 9-4 13-4l6 1c7 1 13 5 17 10l7 8 2 4c-2 2-4 2-7 2l-3 3-6 5c-3 1-5 2-8 1-6-2-9-6-8-11 0-5 4-9 9-10h2l-13-5c-5-1-8 1-11 4s-6 6-7 11c-1 2-1 5 1 7l3 5c0 2-1 2-2 1 2 1 5 2 6 6z" fill="#0b0b06"/><path d="M310 295c-2-3-4-4-7-5 1-1 3 0 2-2h1c4 3 8 2 12 2h11l9-4 6-7 2-1 8-2-3 3c-4 5-9 10-14 13l-8 4h-2l-17-1z" fill="#64604d"/><path d="M276 525c0 3-2 5-4 8 0-3 2-7 4-8z" fill="#e1ac4e"/><path d="M272 499l1-1h1v1h-2z" fill="#e3c270"/><path d="M175 380l8 1 4 1 6 1 3 3 2 1h3l11 3h1l3 3h2l4 2 6 3 7 3 4 2c3 2 6 2 9 0 1-2 3-2 5-2l9-1 6-1 5-1h4l4-3 8-1 2 1-2 2-5 2c-2 0-4 0-5 2l-7 2-7 1-5 1-10 1-4 2-5-1c-2-2-5-2-7-3l-18-6s-2-1-2 1v-1l-2-1-8-2c-2 0-2 0-2 2 0-2-1-3-2-3l-24-6c-3 0-5-2-8-3l-3-2v-2l4-1h6z" fill="#060605"/><path d="M230 350h19l2-1 2-1h21l2 1h9-23l-1 2h1l6 1h2-9l-7-1h-8c-1 0-2-1-2 1l-1 1-2-1-1-2h-10z" fill="#af9b7d"/><path d="M253 365l-3 1c-1 3-1 3-4 2v-4c3-1 5 0 7 1z" fill="#b5a48a"/><path d="M257 355h-22l-1 1-1-1v-1l1-1c2 2 3 1 5 1l16 1h2z" fill="#b49d8f"/><path d="M235 368l-2-1-6-3v-1l3 2c0-2 0-2 2-3l1 1c1 1 0 2-1 2l3 2z" fill="#a4937f"/><path d="M262 355l3 1h7-10l-5-1h5z" fill="#b49d8f"/><path d="M240 360l-3 1-1-1v-2l2 1 2 1z" fill="#b5a283"/><path d="M229 351h-6a16 16 0 017-1l-1 1z" fill="#af9b7d"/><path d="M247 362l-7-2 7 2z" fill="#b9aaaa"/><path d="M227 363v1l-4-2v-1l3 2h1z" fill="#635f5e"/><path d="M250 362l5 1-5-1zM260 364l-5-1 5 1zM230 360l4 1-4-1zM250 362h-3 3z" fill="#b9aaaa"/><path d="M243 370l2 1-2-1z" fill="#a59783"/><path d="M253 365l3 1-3-1z" fill="#b5a48a"/><path d="M250 406l10-2 11-1 5-2 2-1c0 3-2 4-4 3s-3 0-4 2c-1 1-1 2-3 1h-2l-3 1h-5l-7-1z" fill="#5a4e40"/><path d="M223 381l2 5h-1-1l-1-1-1 4 1 1v2h-4l-4-4-1-2h-1c-1-2-2-4-1-6l2-2c1-1 1 0 1 1l1 2 1-2h1l1 1v1c-1 1-1 1 1 1l4-1z" fill="#958c77"/><path d="M211 380l1 6v4l-3-12-1-2-2-2 2-2h3c2 2 2 2 0 4l-1 2 1 2z" fill="#433b30"/><path d="M211 370c-1-1-3-3-5-3l-1-2 1-1 1-1c1 1 3 2 2 4l1 1 4 4-3-2z" fill="#443d33"/><path d="M224 369l-7-3h-2l-2-2 2-2 3 2 1 1 5 3h1l-1 1z" fill="#5a5448"/><path d="M215 357c1 1 3 2 5 1l-1 1 1 1h-2l-2-1-7-3-1-1 1-1h2c0 2 2 3 4 3z" fill="#3a332a"/><path d="M219 373l-2-1 2-2 2 2-2 1z" fill="#5d513e"/><path d="M209 360c0-2 1-2 2-2l2 1-1 1h-3z" fill="#50483e"/><path d="M226 383l-1-3 1 3z" fill="#948a73"/><path d="M214 372l3 3-3-3z" fill="#443d33"/><path d="M217 375l2 2-2-2z" fill="#534a43"/><path d="M223 361v1h-1l-1-1h2z" fill="#3a332a"/><path d="M224 369v-1l2 1h2c1-2 3 0 3 2l1 2 4 4-2-1-2-2-1-1c-3 0-4-3-7-4z" fill="#958772"/><path d="M223 386h1l3 8v1h-1l-4-5 1-4z" fill="#e3c270"/><path d="M234 400l-6-2 1-1 2 1 3 2z" fill="#614e3d"/><path d="M212 261l-5 4-6 2h-3l-3-2c-7-9-7-20 1-28l1-1c5 0 10 1 14 5h-2c-4 0-9 5-9 10s3 9 7 10h5z" fill="#19191d"/><path d="M196 237v1c-7 7-7 17-2 25l1 2h-2c-6-3-9-12-6-18v-1l2-2 3-4 4-3z" fill="#dfdad2"/><path d="M209 246c0-2 0-3 2-3 0 0 1-1 2 1v3l-2 1h-2v-1-1z" fill="#f9fafa"/><path d="M187 246v1a14 14 0 007 18h1c2 0 2 1 3 2h-2c-3 0-5-1-8-3-1-1-2-1-2-3-2-4-3-9 0-14l1-1z" fill="#c8beaf"/><path d="M201 387h-3l2-2-1-10-2-4 1-3 4 2-1 1c-2 2-2 4-1 6l1 8v2z" fill="#373326"/><path d="M197 366l-2-2 3-2 1 1-2 3z" fill="#3b3729"/><path d="M205 360l-1 1-2-1v-1c1-1 1-2 2-1l1 1v1z" fill="#3c3829"/><path d="M215 353c-2 0-2-1-2-2l1-2 2 3-1 1z" fill="#3e3b2c"/><path d="M194 368l2 2-2 2-2-2 2-2z" fill="#3a3628"/><path d="M201 355l4-3v1c0 2-1 3-3 3l-1-1z" fill="#39392b"/><path d="M207 351l4-3v3h-3-1z" fill="#353427"/><path d="M195 359l4-3v3h-4z" fill="#363527"/><path d="M188 363l5-2v2h-5z" fill="#38392b"/><path d="M169 370l2 2-1 1-2-1 1-2z" fill="#3f3a2b"/><path d="M203 364l-2 2-1-1 2-2 1 1z" fill="#3d3729"/><path d="M216 344v1c-1 1-2 2-3 1l3-3v1z" fill="#353729"/><path d="M183 367h1l-1 1-2 1v-1l2-1z" fill="#403c2d"/><path d="M161 371l-1-2 1-1 1 1-1 2z" fill="#3d392b"/><path d="M188 372l-1 1-2-2 2-1 1 2z" fill="#3d392a"/><path d="M167 359l-1 1h-1v-1-2l2 2z" fill="#403c2e"/><path d="M152 355l-1-1 1-1 1 1-1 1z" fill="#e9e9e5"/><path d="M190 367l-1 1-1-1 1-1 1 1z" fill="#3f3b2c"/><path d="M174 369h-1l-1-1v-1l2 2z" fill="#443f30"/><path d="M178 370l2 1-2 1v-1-1z" fill="#433e2f"/><path d="M172 364l-1 1-1-2h1l1 1z" fill="#413d2e"/><path d="M167 363l1 1-1 2-1-2 1-1z" fill="#3d392b"/><path d="M176 368l-1-1 1-1 1 1-1 1z" fill="#423d2e"/><path d="M154 351l-1-1 1-1 1 1-1 1z" fill="#e7e7e3"/><path d="M156 353v1c-1 0-2 0-1-1v-1l1 1z" fill="#edefec"/><path d="M158 349l-1 1-1-1 1-1 1 1z" fill="#484333"/><path d="M162 357l-1-1 1-1 1 1-1 1z" fill="#3e3b2c"/><path d="M152 359h1l-1 1h-1l1-1z" fill="#eaedea"/><path d="M149 359h1l-1 1v-1z" fill="#e6f1ef"/><path d="M150 357l-1 1v-1-1l1 1z" fill="#f4f7f5"/><path d="M150 364l1-1 1 1h-2z" fill="#e8efec"/><path d="M124 338l8-1h7l-1 2-14-1h-1 1z" fill="#f0e0ad"/><path d="M148 325l2 1c-1 1-1 0-2-1z" fill="#a99880"/><path d="M145 323l2 1-2-1z" fill="#ab9d84"/><path d="M286 349c2 0 2 0 3 3l-1 2h-2c0-2-1-2-2-3l3 1c0-1-2-2-1-3z" fill="#f8ebc5"/><path d="M270 352h8-8z" fill="#af9b7d"/><path d="M274 348h-14l-2-2-2-1 2-1h14l2 1v3z" fill="#f0dfac"/><path d="M255 344l-1-1 1-1 10-1h8l1 3h-19z" fill="#efe0ad"/><path d="M255 344h22l-2 1h-22l2-1z" fill="#b1a189"/><path d="M293 354l-3-4 4-1v1l-1 4z" fill="#f9edc8"/><path d="M255 342l-1 1-3 1h-1l-1-1 2-1h4z" fill="#b1a38a"/><path d="M216 344v-1c5-5 8-11 9-18l1-2 1 3 1 2v1l-1 2-2 2-1 3-1 2 1 1v2c-1 1-2 0-3-1l-1-1-1 2c0 2 0 2-3 3z" fill="#948c77"/><path d="M204 348l-2-1-10-4-1-2 1-1 2 1 7 2 5 2 1 1-1 1-2 1z" fill="#5f5b4e"/><path d="M253 345h-3l-6 1c-1 1-2 1-2-1v-1l2-1v1l2 1h7z" fill="#b1a189"/><path d="M249 334l4-2v1l-2 1-2 2c-1 1-1 1-2-1 0 0-1 0 0 0l2-1z" fill="#b1a697"/><path d="M239 339l-1 1h-1v-1h2z" fill="#a9987e"/><path d="M233 348l-1 1h-1 1l1-1z" fill="#ad9e8f"/><path d="M235 347l2-1-2 1z" fill="#aea3a3"/><path d="M242 337l3-1-3 1z" fill="#b2a7a7"/><path d="M253 333v-1l3-3v2l-3 2z" fill="#a29270"/><path d="M269 334h-1 1z" fill="#eac27a"/><path d="M222 345l2 1-1 1-2-1 1-1z" fill="#f3f3f1"/><path d="M223 361h-2c0-2 2-2 3-2l-1 2z" fill="#fafaf9"/><path d="M338 286c-3 2-6 4-9 4l-9 1-2-1h-1c-6-6-7-17-2-24l1-1 4 2c1 0 2 1 3-1 1-1-1-2-1-2l-3-2v-2l6 2 7 3 2 1-5 1c-3 1-7 5-7 9-1 6 4 10 8 11h4l4-1z" fill="#19191d"/><path d="M319 260c2 1 0 2 0 2-4 1-4 1-2 3l-2 2c-4 7-4 14 1 20l1 3c-1 1-4 1-5-1-8-6-9-15-4-23v-1l2-2c2-2 5-3 7-3h2z" fill="#e1dcd5"/><path d="M308 265l-1 3-1 7c-1 4 1 8 4 12l2 2c1 2 3 1 5 1h1c-5 1-9 1-13-2l-4-6v-5c1-5 3-9 7-12z" fill="#c5baaa"/><path d="M301 289l-7-5c-1-1 0-2 1-3s2 0 3 1v1l1 3 2 3z" fill="#605d4b"/><path d="M330 292c-4 3-12 2-17 0h17z" fill="#908873"/><path d="M256 350h-2l1-1h3v1h-1-1z" fill="#fbfffe"/><path d="M197 245v-1l1-3c1-1 3 0 4 1l-1 1-4 2z" fill="#f2f3f4"/><path d="M317 265l-2-1c1-2 2-3 4-2l4 2 1 2c-1 2-3 2-4 1l-3-2z" fill="#fdfdfd"/></g></g></svg>